<svg id="Capa_1" data-name="Capa 1" xmlns="http://www.w3.org/2000/svg" viewBox="0 0 210 48"><defs><style>.cls-1{fill:#fab400;}.cls-2{fill:#11263a;}.cls-3{fill:#5e6274;}</style></defs><title>Mesa de trabajo 2</title><path class="cls-1" d="M1.75,11.54a62,62,0,0,1,10.3-.75c6.48,0,10.7,1.05,13.92,3.51,3.51,2.62,5.72,6.84,5.72,12.87,0,6.48-2.36,10.95-5.58,13.71-3.56,3-9,4.37-15.67,4.37a66,66,0,0,1-8.69-.5ZM9.39,39.12a14.35,14.35,0,0,0,2.66.15c7,0,11.55-3.77,11.55-11.85,0-7.29-4.11-10.76-10.75-10.76A16.15,16.15,0,0,0,9.39,17Z"/><path class="cls-1" d="M57.71,37c0,3.22.1,5.83.2,7.89H51.28l-.35-3.47h-.15a8.77,8.77,0,0,1-7.69,4c-5,0-8.63-3.12-8.63-10.7V20.33h7.63V33.54c0,3.57,1.15,5.73,3.86,5.73a4,4,0,0,0,3.82-2.66,3.94,3.94,0,0,0,.3-1.66V20.33h7.64Z"/><path class="cls-1" d="M73.22,45.45c-7.18,0-12.71-4.73-12.71-12.66s5.22-13,13.16-13c7.49,0,12.51,5.18,12.51,12.61,0,8.94-6.38,13.06-12.91,13.06ZM73.37,40c3,0,4.87-3,4.87-7.38,0-3.62-1.4-7.34-4.87-7.34s-5,3.72-5,7.39c0,4.17,1.75,7.33,5,7.33Z"/><path class="cls-1" d="M108.64,44.3a17.56,17.56,0,0,1-6.83,1.15c-7.94,0-13-4.87-13-12.61,0-7.18,4.93-13.06,14.07-13.06a17.55,17.55,0,0,1,5.83,1l-1.21,5.67a10.47,10.47,0,0,0-4.27-.75c-4,0-6.63,2.86-6.58,6.88,0,4.52,3,6.93,6.73,6.93a10.79,10.79,0,0,0,4.37-.8Z"/><path class="cls-2" d="M123.22,13.7V31.77c0,5.4,2,8.14,5.68,8.14s5.78-2.6,5.78-8.14V13.7h7.07V31.3c0,9.68-4.89,14.29-13.08,14.29-7.92,0-12.57-4.37-12.57-14.38V13.7Z"/><path class="cls-2" d="M169.79,44.2a20.08,20.08,0,0,1-8,1.39c-10.85,0-16.43-6.79-16.43-15.73,0-10.71,7.63-16.67,17.12-16.67a18.59,18.59,0,0,1,7.74,1.4l-1.45,5.63a15.44,15.44,0,0,0-6-1.16c-5.63,0-10,3.4-10,10.38,0,6.28,3.72,10.24,10.05,10.24a17.92,17.92,0,0,0,5.91-1Z"/><path class="cls-3" d="M197.64,44s0-.06,0,0V44a.5.5,0,0,1,0,.21c0,.11-.16.15-.32.21s-.32.1-.39.08-.16-.24-.3-.62l-.2-.52c-.18-.45-.21-.54-.24-.63s0-.17,0-.22l.11,0s.05,0,0-.05,0,0-.07,0l-.4.16c-.08,0-.27.1-.41.15s-.07,0-.06,0,0,0,.06,0l.1,0c.11,0,.15,0,.2.12s.07.18.24.63l.21.52c.1.28.19.51.22.64s0,.17,0,.2a.46.46,0,0,1-.1,0s0,0,0,0,0,0,.07,0l.37-.15c.24-.1.45-.15.87-.32.16-.06.17-.07.16-.15s-.08-.33-.08-.35m-2.06,1.15-.15,0c-.1,0-.14,0-.17-.12s-.12-.36-.21-.66l-.15-.54c-.13-.47-.16-.55-.18-.65s0-.17.07-.21a.14.14,0,0,1,.09,0l0-.05s0,0-.07,0l-.37.11-.4.11s-.07,0-.06,0l.05,0,.11,0c.08,0,.12,0,.16.14s.06.18.19.65l.15.54a5.94,5.94,0,0,1,.18.67c0,.09,0,.14,0,.18l-.11,0s0,0,0,0,0,0,.07,0l.38-.12.48-.12s.06,0,0,0,0,0-.06,0m-1.77.49h-.17c-.09,0-.12-.06-.14-.15s-.06-.39-.1-.68l-.07-.56c-.06-.47-.07-.56-.08-.67s0-.16.1-.19l.09,0s.06,0,.05,0,0,0-.06,0l-.4.06c-.09,0-.29,0-.46,0s-.06,0-.06,0,0,0,.06,0h.12c.11,0,.14.06.16.17s0,.18.09.67v.09l-1.21.14,0,0v-.06a6.13,6.13,0,0,1-.07-.67c0-.11,0-.17.09-.2l.09,0s.06,0,.06,0,0,0-.07,0l-.4.06-.46.05s-.07,0-.06,0,0,0,.06,0h.12c.11,0,.14.06.16.17s0,.18.09.67l.06.55a6.2,6.2,0,0,1,.07.68c0,.09,0,.17-.07.19l-.11,0s-.05,0-.05,0,0,0,.07,0l.4-.06.49,0s.06,0,.06-.05,0,0-.06,0H192c-.1,0-.12-.06-.14-.15s-.06-.38-.1-.68l0-.28v0l1.21-.14,0,0,0,.27c0,.3.06.54.06.68s0,.16-.07.19l-.11,0s0,0,0,0,0,0,.07,0l.39-.06.5,0s.06,0,.06,0,0,0-.05,0m-3.4-2c-.1,0-.2-.06-.32-.08a3.58,3.58,0,0,0-.46-.08,1.41,1.41,0,0,0-1,.25,1.2,1.2,0,0,0-.44.84,1.18,1.18,0,0,0,.31,1,1.51,1.51,0,0,0,1.05.44,1.78,1.78,0,0,0,.58,0c.06,0,.07,0,.09-.09a2.88,2.88,0,0,0,.11-.41l0-.05s0,0-.05.05a.49.49,0,0,1-.13.2.68.68,0,0,1-.59.14,1.07,1.07,0,0,1-.9-1.22,1,1,0,0,1,.36-.8.82.82,0,0,1,.61-.14.93.93,0,0,1,.63.25.44.44,0,0,1,.1.3c0,.05,0,.08,0,.08s0,0,0-.08,0-.23,0-.34,0-.14,0-.17a0,0,0,0,0,0,0M186.78,43l-.13,0-.76-.26-.43-.16s-.07,0-.08,0,0,0,.05,0l.11,0c.09.06.1.11.07.22l-.21.64-.18.53c-.1.28-.18.51-.24.64s-.08.14-.14.13l-.12,0a.06.06,0,0,0-.06,0s0,0,.06.06l.38.12.83.3c.11,0,.14,0,.19,0s.12-.25.15-.32v-.07l0,0c-.07.11-.13.17-.22.17a.68.68,0,0,1-.29-.06c-.31-.1-.35-.16-.27-.37s.12-.37.16-.47l.08-.24,0,0,.43.15a.18.18,0,0,1,.13.18.81.81,0,0,1,0,.11l0,0,.05,0s0-.14.08-.2a1.34,1.34,0,0,1,.1-.21l0,0-.06,0s-.09,0-.16,0l-.48-.16v0L186,43l0,0,.42.16c.15.07.17.12.17.18a.22.22,0,0,1,0,.12l0,0,0,0a1.63,1.63,0,0,0,.09-.19c.06-.14.09-.16.09-.18v0Zm-2.67.39a1,1,0,0,1-.61.57,1,1,0,0,1-.75-.16c-.22-.12-.3-.24-.31-.31s.06-.16.09-.23.14-.27.31-.57l.19-.35.31-.55s0-.05.07,0l.19.08a1.27,1.27,0,0,1,.63.72,1,1,0,0,1-.12.84m14-2-.58.33-.4.21s-.06.05,0,.06h.06l.11-.05c.1,0,.15,0,.21.09l.33.59.28.49c.14.26.26.48.31.6s.05.16,0,.2l-.09.06s0,0,0,.05,0,0,.07,0l.34-.2c.17-.09.36-.18.79-.42.1,0,.13-.07.1-.15a2.26,2.26,0,0,0-.13-.33l-.05,0s0,0,0,.06a.3.3,0,0,1,0,.28.76.76,0,0,1-.24.17c-.28.17-.35.15-.47,0s-.18-.34-.24-.44l-.12-.22v0l.4-.21c.11-.05.18,0,.22,0a.37.37,0,0,1,.06.1h.05v-.07s-.06-.14-.09-.19-.08-.21-.09-.22h0s0,0,0,.06,0,.08-.11.12l-.44.25,0,0-.39-.71v0a3,3,0,0,1,.4-.2c.15-.06.19,0,.24,0a.28.28,0,0,1,.07.09l.05,0v0a1.21,1.21,0,0,0-.09-.2v0Zm-12.91,0a13,13,0,0,0,11,0h-.66a12.72,12.72,0,0,1-4.1.94.61.61,0,0,1-.61-.58v-.36h-.29v.36a.61.61,0,0,1-.61.58,12.78,12.78,0,0,1-4.11-.94Zm-2.23,0a.19.19,0,0,1,0,.16l-.32.59-.27.49c-.15.26-.27.48-.35.59s-.11.13-.16.11a.34.34,0,0,1-.11,0h-.06s0,0,0,.06l.36.18c.14.08.37.26.58.37a1.47,1.47,0,0,0,1.11.19,1.25,1.25,0,0,0,.73-.61,1.06,1.06,0,0,0,.12-.86c-.12-.48-.59-.74-.94-.93-.16-.1-.34-.19-.43-.24a.25.25,0,0,1-.08,0Zm-3.62,0,0,0s.06,0,.08,0l0-.05h-.09Zm-1.54,0a17.49,17.49,0,0,0,25.81,0h-.39c-.11.13-.23.24-.34.36a17.23,17.23,0,0,1-24.35,0l-.35-.35Z"/><path class="cls-3" d="M187,37.83l0-.55,0,0a.47.47,0,0,1,.11.26v0s0,.08-.08.15l-.08.09M186.5,37l.14.07.23.11,0,.75-.23.09-.08-.05,0-.78V37m-.14.33,0,.54a.18.18,0,0,1-.09-.08c-.06,0-.08-.07-.08-.13v0a.65.65,0,0,1,0-.11.72.72,0,0,1,.13-.19m.59,1.79V38.9a.13.13,0,0,1,0,.07v0a.17.17,0,0,1,0,.12m.41-.45a.53.53,0,0,1,.06.24V39a.9.9,0,0,1-.08.28.65.65,0,0,1-.25.29l-.15-.08h0l0,0-.05,0h0l.07,0,.07,0,.08-.07h0a.3.3,0,0,0,.11-.23v0h0a.38.38,0,0,0-.11-.21l-.06,0a.07.07,0,0,1,0,0h0l-.07,0-.21-.11h0l-.06,0-.05,0h0l-.08,0-.15-.06-.1-.05,0,0-.08-.05-.15-.11a.88.88,0,0,1-.18-.25l-.06-.28,0-.27h0a.76.76,0,0,1,.15-.26.78.78,0,0,1,.25-.23h0l.28.09h0v.18h0l-.09.08a.92.92,0,0,0-.17.25.41.41,0,0,0,0,.16v.06a.4.4,0,0,0,.12.2.7.7,0,0,0,.2.16l0,0,0,0h0l.08,0,.08.06h0l.19.1.07,0h0l.06,0,.08,0,.14.06a.53.53,0,0,1,.17.19m-.8.08.09,0,.16.08v.44l-.15.12-.08,0Zm-.13.47h0s0,0-.06-.07a.31.31,0,0,1,0-.08s0-.05,0-.08a.22.22,0,0,1,.08-.13Zm.73.68h0c0,.08,0,.12-.12.2a.42.42,0,0,1-.12.08v-.1h0c0-.07,0-.09,0-.18h0a0,0,0,0,1,0,0,.11.11,0,0,0,0-.07l0,0-.06,0h0l0,0-.16-.05-.06,0h-.07l-.29-.09-.09-.06,0,0L186,39.4a.63.63,0,0,1-.12-.23,1.55,1.55,0,0,1,0-.17s0-.07,0-.1a.41.41,0,0,1,.11-.24l.19-.17.15.06.11.05h0l0,0-.07,0s0,0-.08.07a.3.3,0,0,0-.12.2.25.25,0,0,0,0,.12.28.28,0,0,0,0,.13.24.24,0,0,0,.12.14l.09.05,0,0,0,0,.07,0,.08,0h0l.11.05.07,0h0l0,0h0l.08,0,.05,0h0a.21.21,0,0,1,.1.19Zm-.41.69h0v0a.11.11,0,0,1-.06,0l0,0,0,0h0v-.22l0-.53.08,0,.11,0Zm-.44-.45h0a.12.12,0,0,1-.1-.06.15.15,0,0,1,0-.11v0a.23.23,0,0,1,0-.11l.11-.08.14,0v.4ZM183,36c.05.42.08.64.09.75a1.09,1.09,0,0,1,0,.12h0s0,.19.1.92v0a.37.37,0,0,1-.13.21.6.6,0,0,1-.31.1.67.67,0,0,1-.32-.1.39.39,0,0,1-.14-.21v0c.09-.93.14-1.4.17-1.64a1.18,1.18,0,0,0,0-.16Zm.22.81Zm16-.43a.65.65,0,0,0,.05.18.56.56,0,0,0,.12.2l-1.84,2.62h0a.35.35,0,0,1-.06-.14.19.19,0,0,1,0-.09v-.05h0a.78.78,0,0,1,0-.22s0-.09,0-.11l.12-.17,1.57-2.24h0m-2.57,2.87,0-.42a1.55,1.55,0,0,0,.34.05,1.63,1.63,0,0,0,.31,0h0a1.78,1.78,0,0,0,0,.26v.09a.11.11,0,0,1,0,0s0,0,0,0a.77.77,0,0,0,.07.16Zm-1.33-.3-.08,0a.36.36,0,0,1-.33.19h0a.39.39,0,0,1-.36-.3l-.06-.05-1.95-.36a.54.54,0,0,0,0-.22v-.08a.59.59,0,0,0,0-.23l.11.05.29.11.1,0,.21,0,.23,0h0l.59,0a.87.87,0,0,1,.46.15.77.77,0,0,1,.28.31l.11,0a.8.8,0,0,1,.49-.23h.13a.88.88,0,0,1,.51.18h0l0,0,0,.56Zm.63-2.1.1,1.55a1,1,0,0,0-.54-.17h-.16a1,1,0,0,0-.3.08Zm6.16,3.54-.77-.34v0l.41-.43h0l.35.76v0Zm-.46-1.59c-.07-.16-.11-.28,0-.4l.07-.07v0l-.07,0-.25.28-.24.24,0,.05h0l0,0c.07-.07.12-.07.15,0a.68.68,0,0,1,.12.17l.2.44v0l-.49.51h0l-.66-.28a.08.08,0,0,1,0-.08v0s0,0-.08,0A5.07,5.07,0,0,0,200,40c-.09.08-.1.11-.08.13h0l.1-.09c.06,0,.16-.08.45,0l2,.79c.07,0,.11,0,.13,0s0-.07,0-.16ZM204,37a1.19,1.19,0,0,0-1-.18,1.5,1.5,0,0,0-.88.72,1.72,1.72,0,0,0-.26.53c0,.05,0,.07,0,.11a1.9,1.9,0,0,0,.31.29h.06s0,0,0-.07a.61.61,0,0,1-.12-.21.67.67,0,0,1,.17-.58,1.19,1.19,0,0,1,2,.46.83.83,0,0,1-.16.61,1,1,0,0,1-.51.44.43.43,0,0,1-.32-.06s-.07,0-.08,0,0,0,0,.06l.29.2.13.11.06,0c.06-.07.14-.14.22-.24s.17-.2.28-.36a1.36,1.36,0,0,0,.26-1A1.19,1.19,0,0,0,204,37M178.4,38.7c-.67.44-1.06.2-1.27-.11a1,1,0,0,1,.47-1.41c.77-.5,1.14-.13,1.26.06a1,1,0,0,1-.46,1.46m.67-1.44a1.26,1.26,0,0,0-1.81-.39,1.15,1.15,0,0,0-.3,1.73,1.25,1.25,0,1,0,2.11-1.34m19.43,4.18c-.05-.11-.06-.15-.07-.17l0,0,0,0-.11.08-.12.07Zm-15.3,0-.32-.19s-.06,0-.07,0l0,0,.11.08a.12.12,0,0,1,.05.07Zm-3.73,0a.31.31,0,0,1-.08-.1c-.06-.09,0-.14,0-.22l.49-.47.4-.39a5.33,5.33,0,0,1,.5-.46c.08-.06.14-.1.19-.06a.57.57,0,0,1,.09.08h0l0-.07-.29-.28-.33-.36-.06,0v0l.11.13c.05.08,0,.14,0,.21s-.27.28-.48.49l-.92.88-.06,0-.1-.09a.5.5,0,0,1-.13-.31.6.6,0,0,1,.22-.47.5.5,0,0,1,.67-.06c.05,0,.07.06.08,0v0l0-.06a.75.75,0,0,0-1.1,0,.54.54,0,0,0-.16.37.78.78,0,0,0,.27.56l.34.32.27.31Zm27.37-5.69a17.37,17.37,0,0,1-3.58,5.69h.39a17.51,17.51,0,0,0,3.49-5.69Zm-3.63,0-.1.2s0,.06,0,.07,0,0,0,0,.06-.11.08-.15.11-.08.19-.05.36.15.65.27l.51.23.61.28c.1,0,.14.1.12.18a.46.46,0,0,1,0,.09v.06s0,0,0,0,.12-.29.15-.36l.18-.37s0-.07,0-.08l0,0a.86.86,0,0,1-.07.1c0,.06-.1.07-.2,0l-.62-.27-.41-.18Zm-1.26,0a12.85,12.85,0,0,1-6.35,5.69h.66a13.1,13.1,0,0,0,6-5.69Zm-2.41,0,0,0a1.13,1.13,0,0,0,.74.24,1.24,1.24,0,0,0,.75-.24,0,0,0,0,0,0,0h-.25a1.14,1.14,0,0,1-.52.12,1.11,1.11,0,0,1-.52-.12Zm-5.95,0-1.28,2,0,.05,0,0a.47.47,0,0,1,.13.34v.07a.84.84,0,0,1-.07.26l0,.1,2,.36a.51.51,0,0,0,.48.36h0a.53.53,0,0,0,.43-.22l.77.17.05.8h0a.21.21,0,0,0,.21.21.21.21,0,0,0,.22-.21l0-.68.93.23.08-.12h0l1.91-2.71,0-.1a.35.35,0,0,1-.13-.18.46.46,0,0,1,0-.22.32.32,0,0,1,0-.14l0,0-.06-.12-.3,0a2,2,0,0,1-.46,0,3.8,3.8,0,0,1-.61-.18h-.32a1.82,1.82,0,0,0,.28.13,2.56,2.56,0,0,0,.63.19,2.86,2.86,0,0,0,.48.06h.15l-.94,1.33-.85,1.21h-.11l-.28,0h0a1.06,1.06,0,0,1-.33-.05l.21-2.91h-.15l-.2,2.86v.15l0,.42v.15l-.05.7a.08.08,0,0,1-.08.08.08.08,0,0,1-.07-.08h0l-.05-.75v-.16l0-.5v-.17l-.12-1.85,0-.25,0-.6h-.14l.05.82-1.1,1.81a.78.78,0,0,0-.26-.25.86.86,0,0,0-.53-.17h0l-.58,0h-.14s0,0,0,0l-.25,0-.07,0-.14,0-.11,0h0l-.23-.1h0l1.28-2Zm-1.88,0,0,0a1.28,1.28,0,0,0,1.49,0l0,0H193a1.11,1.11,0,0,1-.52.12,1.1,1.1,0,0,1-.51-.12Zm-1.11,0v5.69h.28V35.75Zm-5.53,0v0h0l.15.23.13.27a1,1,0,0,0,.3.38,1.1,1.1,0,0,0,.25.15l-.2.2a1.23,1.23,0,0,0-.17.32h0l0,.28v0l.06.31h0a.9.9,0,0,0,.21.3,1.33,1.33,0,0,0,.23.17l-.16.14h0a.62.62,0,0,0-.14.31.62.62,0,0,0,0,.13.86.86,0,0,0,0,.21.67.67,0,0,0,.14.28l.1.11h0l.09.07h0l0,0,0,.06a.22.22,0,0,0-.06.18v0a.32.32,0,0,0,.05.19.27.27,0,0,0,.18.12l.15,0,0,.05,0,0h0v.19h.07l.06,0,0,0,0,0-.07,0a.27.27,0,0,0,0,.1.19.19,0,0,0,.35,0,.65.65,0,0,0,0-.1v-.27a.52.52,0,0,0,.24-.13.42.42,0,0,0,.15-.3h0a.37.37,0,0,0-.09-.25.75.75,0,0,0,.26-.32.66.66,0,0,0,.08-.34v-.07a.6.6,0,0,0-.08-.31.51.51,0,0,0-.22-.24h0l.14-.08a.9.9,0,0,0,.27-.28.88.88,0,0,0,.1-.41v-.09a1.09,1.09,0,0,0,0-.17.81.81,0,0,0-.3-.48l0,0h0l.24-.21h0l.21-.28h0a2.36,2.36,0,0,1,.13-.23l.05-.1s0-.06.08-.13h0a.13.13,0,0,1,.06-.08s0,0,0,0h-.17s0,0,0,0h0a.52.52,0,0,0-.09.15l-.06.09c0,.09-.07.15-.12.24l-.19.25-.23.19-.1.07-.22-.12,0,0v-.14l.06,0h0l.26-.21.19-.3h0a1.11,1.11,0,0,1,.09-.19h-.17a.49.49,0,0,1-.06.13h0l-.17.26-.22.18,0-.57h-.14l0,.64v.15h0l-.11-.06-.3-.13,0-.6h-.14l0,.54h0l-.05,0-.16-.1-.11-.07-.24-.33h-.17c.12.18.08.11.3.41l.08.08.17.09.07.05h0l.11,0,.07,0,.08,0,.23.1.16.09.08,0,.06,0,0,0,.23.12,0,0a.57.57,0,0,1,.26.41.36.36,0,0,1,0,.14v.08a.7.7,0,0,1-.09.35.68.68,0,0,1-.22.23.85.85,0,0,1-.23.12l-.07,0h0l-.06,0-.07,0-.08,0,.08,0,.07,0h0l0,0a1,1,0,0,0,.21-.19.33.33,0,0,0,.1-.23v0a.58.58,0,0,0-.14-.33h0a.49.49,0,0,0-.13-.12l-.06,0h0l-.07,0-.17-.09-.21-.08h0l0,0h0l-.07,0-.28-.09h0a1,1,0,0,1-.29-.16.8.8,0,0,1-.26-.34l-.15-.26-.11-.19Zm-2.6,0v.07h0s0,0,0,0h0s0,0,0,.06-.06.49-.2,1.83v0a.44.44,0,0,0,.19.32.73.73,0,0,0,.4.13h0a.65.65,0,0,0,.38-.13.44.44,0,0,0,.19-.32v0c0-.47-.07-.7-.08-.82a1.13,1.13,0,0,0,0-.12v0s0-.2-.1-.91v-.07h-.07v-.07h-.14v.07h-.32s0,0,0-.07Zm-3.24,0a13.12,13.12,0,0,0,6,5.69h.65a12.85,12.85,0,0,1-6.35-5.69Zm-1.2,0,.06.11,0,0s0,0,0-.08l0-.07Zm-2,0-.27.58c0,.07-.05.11,0,.14s0,0,.11,0l1.76-.68.1,0h-.65l-.74.32h0a3.35,3.35,0,0,1,.15-.31Zm-1.71,0a17.53,17.53,0,0,0,3.5,5.69h.38a17.18,17.18,0,0,1-3.57-5.69Z"/><path class="cls-3" d="M184.35,35l-.08.08,0,0,0,0,.06,0,0,0,.08-.08,0,0-.08-.08Zm4.55,0-.08.08,0,0,0,0,.06,0,0,0,.08-.08,0,0-.07-.08Zm-2.63-.63H184.7v-.25h3.9v.25h-2.33Zm-3,.06a1.08,1.08,0,0,1-.27.07l-.19,0a.54.54,0,0,1,.29-.32.65.65,0,0,1,.29-.07l.18,0a.6.6,0,0,1-.3.33m-.48-.26h0s0,0,0,0Zm-.19-.55h.05v.06l-.05-.07m0,.55h0v.05l0-.05m-.82-.72h0a.83.83,0,0,0,.23.49.85.85,0,0,0-.26,0l-.67-.38a1.14,1.14,0,0,1-.06-.33V33.2a.9.9,0,0,1,0-.23Zm.84,1-.2,0a1,1,0,0,1-.26-.07.58.58,0,0,1-.31-.33l.19,0a.61.61,0,0,1,.28.07.59.59,0,0,1,.3.32m-.4-.55a.6.6,0,0,1-.29-.43h.1a.53.53,0,0,1,.42.2.54.54,0,0,1,.15.36h0a.57.57,0,0,1-.33-.12m.06.73-.41-.16h0a.68.68,0,0,1-.23-.14,1.14,1.14,0,0,1-.31-.27.92.92,0,0,1-.11-.15l0-.09.5.28v0a.66.66,0,0,0,.4.46.65.65,0,0,0,.32.09.85.85,0,0,0,.22,0v.19a0,0,0,0,1,0,0Zm.56-1-.06.08v-.07h.06m.57-.15h.09a.57.57,0,0,1-.29.43.55.55,0,0,1-.33.12h0a.54.54,0,0,1,.15-.36.55.55,0,0,1,.43-.2m16.79-.41V35h-.81Zm-7.68,0,.83,2h-.83Zm-.15,0v2h-.82Zm8,0,.82,2h-.82Zm6,.92s0,0,0,0l0,.09c-.05.09-.11.1-.22.07s-.18-.05-.64-.22l-.52-.17c-.28-.1-.52-.18-.64-.24s-.15-.08-.14-.14a1,1,0,0,1,0-.12s0-.05,0-.05,0,0-.05,0l-.12.39c-.09.24-.17.44-.32.87-.06.16,0,.18,0,.22a2.36,2.36,0,0,0,.32.16s.06,0,.06,0l0,0a.34.34,0,0,1-.15-.14c-.06-.11,0-.23,0-.39s.12-.3.19-.34.28,0,.66.16l.54.18.63.23c.1,0,.15.09.13.17a.42.42,0,0,1,0,.12s0,.06,0,.07,0,0,0-.06l.13-.41.15-.41s0-.07,0-.08m-2.07,1.76-.1,0-.63-.29c-.08-.06-.12-.1-.11-.15a.34.34,0,0,1,0-.12s0,0,0,0,0,0-.06,0l-.16.37a1.92,1.92,0,0,1-.11.25Zm-16.69,0h0a1.81,1.81,0,0,1,.19-.29,1.31,1.31,0,0,1,.25-.22,2.1,2.1,0,0,1,.3-.15l.27-.09h0a.52.52,0,0,1,.18,0h.07a.79.79,0,0,1,.26.08h0l.19.12v.08l-.18.11-.16.09a.5.5,0,0,1-.16,0h-.12a.13.13,0,0,1-.08,0,.42.42,0,0,0-.13,0h0a.39.39,0,0,0-.3.17.39.39,0,0,0-.09.11.18.18,0,0,0-.05.07h.17l.08-.09a.24.24,0,0,1,.2-.12h0l.07,0,.12,0h.14a.71.71,0,0,0,.2,0h0l.18-.1.2-.13.19,0h.08l.1-.08.08-.05h-.18l-.19-.11h0v0h0l-.24-.16h0a.58.58,0,0,0-.33-.1h-.08a.62.62,0,0,0-.23,0h0l-.28.1-.32.16h0a1.35,1.35,0,0,0-.28.25,1.54,1.54,0,0,0-.21.31l-.05.08Zm-2.42,0,0,0h0a.44.44,0,0,0-.36-.28l-.11,0a.55.55,0,0,0-.24.07h-.15a.36.36,0,0,1-.21-.08l-.17-.15,0,0a.51.51,0,0,1,.33-.24l.19,0a.57.57,0,0,1,.18,0h0l.3.13c.08,0,.21.15.29.2a.37.37,0,0,1,.1.11l0,.05,0,0h0a1.78,1.78,0,0,1,.17.26h.17c0-.06-.09-.14-.22-.34l0,0-.08-.1a.38.38,0,0,0-.09-.09A2.57,2.57,0,0,0,185,35h0l-.31-.12h0a.71.71,0,0,0-.24,0,.66.66,0,0,0-.23,0,.65.65,0,0,0-.4.28h0l-.22.07h-.17l.17.12h.08l.19,0h0l.16.14h0a.55.55,0,0,0,.29.11h.06l.14,0h0a.37.37,0,0,1,.17-.05l.09,0a.35.35,0,0,1,.25.19Zm-7.52,0c.19-.07.26-.07.31,0s0,0,0,0h.07L178,35.5l-.13-.37s0-.06-.07-.05,0,0,0,.06a.42.42,0,0,1,0,.16c0,.07-.05.14-.28.23l-.49.22Zm-1.24,0c.09-.19.2-.45.31-.69.18-.43.41-1,.51-1.22a.24.24,0,0,0,0-.13s0,0-.11,0l-1.88.72c-.16.07-.23.07-.29,0l0-.09s0,0,0,0,0,0,0,.08l.12.29c0,.06.08.2.14.36s0,.07,0,.06,0,0,0-.06a.38.38,0,0,1-.05-.16c0-.08.05-.13.23-.2l1.32-.57h0c0,.07-.29.64-.41.92s-.21.51-.31.73Zm31.17-2.84a16.81,16.81,0,0,1-.8,2.84h.3a17.79,17.79,0,0,0,.8-2.84Zm-2.51,0a1.64,1.64,0,0,0,.41.11,1.17,1.17,0,0,0,.75-.11Zm-2,0A12.78,12.78,0,0,1,202,35.75h.3a12.73,12.73,0,0,0,1.12-2.84Zm-2.93,0L199.28,35h-.05v.07a.84.84,0,0,0,.31.66h.26a.67.67,0,0,1-.14-.09.7.7,0,0,1-.28-.5h1.88a.74.74,0,0,1-.28.5,1.1,1.1,0,0,1-.14.09h.25a.84.84,0,0,0,.31-.66V35h0l-.88-2.11h-.32Zm-3.18,0-.18,2.65v.18h.15v-.11h0a2.06,2.06,0,0,1,.33,0,.6.6,0,0,1,.31.1l.07,0H198a2.27,2.27,0,0,1-.31-.17.81.81,0,0,0-.38-.11l-.32,0h0l.18-2.58Zm-1.26,0,.16,2.35c-.11,0-.21,0-.32,0h-.07a2.35,2.35,0,0,1-.66-.06,1.61,1.61,0,0,1-.63-.27l-.1,0-.51.77h.17l.42-.64a2.06,2.06,0,0,0,.61.25,2.76,2.76,0,0,0,.69.06h.08l.33,0,0,.35h.14l0-.33v-.15l-.15-2.36Zm-3.39,0-.9,2.11h0v.07a.84.84,0,0,0,.31.66H192a.54.54,0,0,1-.15-.09.74.74,0,0,1-.28-.5h1.88a.77.77,0,0,1-.42.59h.26a.84.84,0,0,0,.31-.66v0h0v0h0l-.91-2.11h-.31Zm-1.73,2.84h.28V32.91h-.28Zm-3.14-2.7h.14v-.14h-.14Zm-1.77,0h.15v-.14h-.15ZM181,32.91a.92.92,0,0,0,0,.29v.09a.86.86,0,0,0,0,.23.68.68,0,0,0,.07.2s0,0,0,.05.08.17.12.23a1.14,1.14,0,0,0,.12.19,1.3,1.3,0,0,0,.33.29,2.13,2.13,0,0,0,.25.16h0l.41.15.36.15h0l.11,0,.11.08a.32.32,0,0,1,.09.22v.47h.14v-.48h0a.53.53,0,0,0-.15-.32c-.06,0-.08-.07-.11-.08v-.25a.78.78,0,0,0,.21,0,.71.71,0,0,0,.33-.09.68.68,0,0,0,.39-.44l1.12-.61a2.42,2.42,0,0,0-.06.48h-.25v.53h1.71l0,1.22h.14l0-1.22H187l0,1.22h.14l0-1.22h1.64V34h-.22a1.94,1.94,0,0,0-.14-.73.23.23,0,0,0,0-.14h0a.31.31,0,0,0,.29-.22h-.16a.21.21,0,0,1-.13.07h-.62v.13h.45a.17.17,0,0,1-.17.16h-.56v.14h.56a.24.24,0,0,0,.15,0,2.07,2.07,0,0,1,.12.63H185a2.07,2.07,0,0,1,.11-.62.28.28,0,0,0,.13,0h.57v-.14h-.57a.15.15,0,0,1-.11,0h0l0,0a.19.19,0,0,1,0-.08h.43V33h-.61a.17.17,0,0,1-.13-.07h-.16a.32.32,0,0,0,.29.22h0a0,0,0,0,1,0,0h0s0,0,0,0a.12.12,0,0,0,0,.08s0,0,0,0l-1.25.67a.87.87,0,0,0-.22,0,.76.76,0,0,0,.23-.5h0l.78-.53h-.24l-.66.44h-.18a.65.65,0,0,0,.18-.44h-.14a.55.55,0,0,1-.25.45.51.51,0,0,1-.32.14v-.08a.49.49,0,0,1,.11-.31.43.43,0,0,1,.11-.12l.07-.06.06,0h-.29l-.07,0v0h-.2v0l-.07,0h-.26a.71.71,0,0,1,.14.1.43.43,0,0,1,.09.1.49.49,0,0,1,.11.31s0,0,0,.08a.54.54,0,0,1-.32-.14.57.57,0,0,1-.24-.45H182a.64.64,0,0,0,.17.44h-.05l-.19,0,0,0-.64-.44Zm-1.4,0,.44.25v0a1.76,1.76,0,0,0,0,.33h0a3.07,3.07,0,0,0,.11.36l.07.14.16.24a1.8,1.8,0,0,0,.19.2h0c.07.07.12.1.19.16h0l.22.16.29.17.24.11.25.09.24.06.19.06.18.07a.22.22,0,0,1,.11.16v.19a.11.11,0,0,1,0,0h.15v-.21a.34.34,0,0,0-.19-.29h0l-.19-.08h0l-.19,0L181.8,35l-.23-.08-.24-.11-.27-.16-.22-.15-.19-.16-.17-.18a1.35,1.35,0,0,1-.14-.22.52.52,0,0,1-.06-.13,1,1,0,0,1-.1-.32h0a.88.88,0,0,1,0-.27v0a.45.45,0,0,1,0-.12.51.51,0,0,1,0-.17H180s0,.06,0,.09l-.17-.09Zm-1.44,0a13.4,13.4,0,0,0,1.11,2.84h.3a13.28,13.28,0,0,1-1.14-2.84Zm-3.46,0,0,.08c0,.11,0,.23,0,.31a.5.5,0,0,1,0,.15s0,0,.07,0,.32,0,.37,0a0,0,0,0,0,0,0l0,0-.12,0c-.08,0-.11-.12-.15-.3l0-.18Zm-1.11,0a17.77,17.77,0,0,0,.79,2.84h.31a16.83,16.83,0,0,1-.81-2.84Z"/><path class="cls-3" d="M182.68,32v.41a.72.72,0,0,0-.49-.37l-.09-.2.13-.05.3-.07.36,0h.3l.21,0-.14.3a.8.8,0,0,0-.44.34V32Zm-.51.73H182l-.5-.54.21-.17.2-.11.05,0,.12.25a.54.54,0,0,0,0,.22.63.63,0,0,0,.12.37m24.59-.92a1,1,0,0,1-1.28.76c-.91-.13-.94-.66-.91-.88a1,1,0,0,1,1.31-.8c.79.11.93.55.88.92m-.47,1.1a1.27,1.27,0,0,0,.6-1,1.22,1.22,0,0,0-1-1.47,1.21,1.21,0,0,0-1.41,1.1,1.26,1.26,0,0,0,.7,1.37Zm-13.81,0h.16l-.11-.27h3.18v.27h.15l0-.42h-3.55a.3.3,0,0,1-.27-.29v0a.31.31,0,0,1,.26-.32h.05a.33.33,0,0,1,.23.09.34.34,0,0,1,.1.23v.09h.07l.68,0a6.24,6.24,0,0,0,1.29-.15,3.35,3.35,0,0,0,.75-.21,2.7,2.7,0,0,0,.59-.35l.06,0-.05-.05a.51.51,0,0,1-.13-.33.57.57,0,0,1,.06-.24.52.52,0,0,1,.17-.21.51.51,0,0,1,.58,0,.52.52,0,0,1,.17.21.57.57,0,0,1,.06.24.51.51,0,0,1-.13.33l0,.05.06,0a2.42,2.42,0,0,0,.58.35,3.59,3.59,0,0,0,.76.21,6.24,6.24,0,0,0,1.29.15l.67,0h.07v-.09a.34.34,0,0,1,.1-.23.31.31,0,0,1,.22-.09h0a.31.31,0,0,1,.27.32v0a.31.31,0,0,1-.27.29H197l0,.42h.15l0-.27h3.13l-.12.27h.32l-.11-.27h.21a.47.47,0,0,0,.41-.43v-.05a.48.48,0,0,0-.39-.47h-.08a.47.47,0,0,0-.46.43l-.6,0A6,6,0,0,1,198.2,32a3.89,3.89,0,0,1-.73-.2,2,2,0,0,1-.5-.29.6.6,0,0,0,.12-.36.66.66,0,0,0-.07-.3.54.54,0,0,0-.23-.26.8.8,0,0,0-.35-.12h0a.91.91,0,0,0-.35.12.52.52,0,0,0-.22.26.66.66,0,0,0-.07.3.69.69,0,0,0,.11.36,1.88,1.88,0,0,1-.5.29,3.79,3.79,0,0,1-.72.2,6,6,0,0,1-1.26.15l-.6,0a.48.48,0,0,0-.47-.43h-.07a.47.47,0,0,0-.39.47v.05a.45.45,0,0,0,.4.43h.16l-.11.27Zm-8,0,.08,0a.43.43,0,0,1,0,0h.16a.32.32,0,0,1,0-.09h.77v-.14h-.91a.16.16,0,0,1-.17-.15h1.24s.07.05.07.11v.26h.15v-.26a.24.24,0,0,0-.08-.19,1.73,1.73,0,0,1,1.79,0,.22.22,0,0,0-.09.19v.26h.14v-.26a.1.1,0,0,1,.08-.11h1.24a.16.16,0,0,1-.17.15h-.91v.14h.77a.16.16,0,0,1,0,.09h.16a.5.5,0,0,1,.32-.39h0v-.13H187.7a1.74,1.74,0,0,0-1-.32,1.8,1.8,0,0,0-1.06.32h-.36l.8-.54-.08-.12-1,.66h-.76v.14h0a.31.31,0,0,0,.16.26l-.17.12Zm-4.29,0a.25.25,0,0,1,0-.08,1.06,1.06,0,0,1,.12-.34.08.08,0,0,1,0,0l.07-.13.1-.13c.06-.08.1-.11.17-.19l.23-.2,0,0,.13-.08.15-.09h0a1.87,1.87,0,0,1,.32-.15l.19-.06.14,0h0a1.45,1.45,0,0,1,.3-.05l.21,0h.14a2.09,2.09,0,0,1,.42.05,1.38,1.38,0,0,1,.34.12.67.67,0,0,1,.19.1.6.6,0,0,1,.11.06h0l-.13,0h0l-.25-.05h-.33l-.36,0h0l-.31.07h0l-.16.06-.13.05,0,0h0l-.21.12h0l-.23.19-.06,0,0,.06-.14.17h0l-.12.21h0l0,.15,0,.15h.29l-.14-.09,0-.18.12-.19.12-.16.53.56h0v.07h.14v0h0a.42.42,0,0,1,.2,0h.24a.33.33,0,0,0-.14-.1l-.07-.08a.58.58,0,0,1-.14-.36.78.78,0,0,1,0-.16.57.57,0,0,1,.38.34,1.05,1.05,0,0,1,.07.3.17.17,0,0,1,0,.07h.2s0,0,0-.07a.79.79,0,0,1,.07-.3.59.59,0,0,1,.38-.34.78.78,0,0,1,0,.16.5.5,0,0,1-.15.36l-.09.1s-.06,0-.07,0l-.08,0h.28a.51.51,0,0,1,.22,0h0v0h.14v-.1h0L185.29,31l-.1-.09-1.72,1.83h-.14a.63.63,0,0,0,.12-.37.86.86,0,0,0,0-.27l.14-.32.13.05A.64.64,0,0,1,184,32l.1-.1-.19-.23h0a1.08,1.08,0,0,0-.2-.16h0l.47-1-.13-.06-.46,1a.85.85,0,0,0-.19-.1,2.72,2.72,0,0,0-.37-.13,1.73,1.73,0,0,0-.45-.05h-.14l-.22,0a1.88,1.88,0,0,0-.33,0h0l-.4-.8-.13.06.39.77-.17.06-.36.17-.19.11-.67-.72-.11.09.67.71a0,0,0,0,0,0,0,1.64,1.64,0,0,0-.25.21,1.71,1.71,0,0,0-.18.2,1.34,1.34,0,0,0-.11.14l-.8-.56-.08.13.81.56,0,.06a1.36,1.36,0,0,0-.13.37.43.43,0,0,0,0,.11Zm-.34,0-.8-.45-.07.12.59.33Zm-5,0-.05-.28,1.28-.23a5.73,5.73,0,0,1,.67-.1c.1,0,.17,0,.19.06a.18.18,0,0,1,0,.11s0,.05,0,.05,0,0,0-.07-.06-.32-.08-.4,0-.28-.08-.49c0,0,0-.06,0,0s0,0,0,0a.92.92,0,0,1,0,.16c0,.1-.06.13-.15.16L176,32l-1.28.22-.06-.39c0-.28,0-.38.11-.4h0s.07,0,.06-.05,0,0-.06,0l-.36.06c-.05,0-.07,0-.07,0a.73.73,0,0,1,.09.29l.21,1.16ZM208,30.07a16.79,16.79,0,0,1-.31,2.84h.29a17.76,17.76,0,0,0,.31-2.84Zm-1.38,0h0Zm-3.17,0a.56.56,0,0,1,.09.31,12.37,12.37,0,0,1-.4,2.53h.28a13.33,13.33,0,0,0,.41-2.84Zm-12.89,0a.63.63,0,0,1,.09.31v2.53h.28V30.38a.48.48,0,0,1,.1-.31Zm-12.8,0a12.72,12.72,0,0,0,.41,2.84h.27a12.48,12.48,0,0,1-.4-2.53.65.65,0,0,1,.08-.31Zm-3.37,0c0,.08,0,.16,0,.2v.42s0,.08,0,.08,0,0,0-.06a.37.37,0,0,1,0-.11c0-.08.07-.11.17-.12l.68,0,.56,0h.7c.09,0,.14,0,.15.08a.36.36,0,0,1,0,.11s0,.06,0,.06,0,0,0-.07a3.67,3.67,0,0,0,0-.4v-.14h-2.15l-.1,0Zm-1.1,0a19,19,0,0,0,.31,2.84h.29a17.88,17.88,0,0,1-.31-2.85Z"/><path class="cls-3" d="M184.19,28.32a.51.51,0,0,1,.17.3h-1.93a.49.49,0,0,1,.18-.3h0L183,28h0a.28.28,0,0,0,.09-.2.15.15,0,0,1,.07-.09.31.31,0,0,1,.18-.09h0l.27-.06h.05v.22a.29.29,0,0,0,.1.22Zm15.6.31h-.2V27.35l.2.34Zm-6.65,0H193v-1l.19-.31Zm-18.78.48s0,0,0-.05,0-.1,0-.13.08-.12.2-.12l.66,0,.56,0,.68.06c.09,0,.16.05.17.11a.37.37,0,0,1,0,.11s0,0,0,0,0,0,0-.06,0-.33,0-.41,0-.28.05-.48,0-.07,0-.07,0,0,0,.05,0,.11,0,.16-.09.11-.19.11a6.46,6.46,0,0,1-.67,0l-.27,0,0,0a3.89,3.89,0,0,1,0-.47.19.19,0,0,1,.13-.16h.1l0,0s0,0-.06,0l-.23,0-.19,0,0,0,0,0a.17.17,0,0,1,.05.14c0,.05,0,.1,0,.15l0,.4,0,0-.79-.06s0,0,0,0l0-.49c0-.12.06-.19.11-.2a.17.17,0,0,1,.12,0s0,0,0,0l0,0-.25,0-.14,0,0,0v.05a.65.65,0,0,1,0,.14c0,.07-.05.72-.06.84s0,.29,0,.45,0,.07,0,.08m32.65,1v0a1.16,1.16,0,0,1,0-.31l0-1.26c0-.1,0-.22,0-.32s0-.11,0-.13,0,0-.05,0a2,2,0,0,0-.37-.06s-.06,0-.05,0l0,0,.11.05c.07.05.09.12.09.31l0,.47-1.3,0a6.76,6.76,0,0,1-.68,0c-.09,0-.16,0-.17-.09a.75.75,0,0,1,0-.11s0-.05,0-.05,0,0,0,.06,0,.33,0,.41,0,.28,0,.49c0,0,0,.07,0,.07s0,0,0-.06a.92.92,0,0,1,0-.16c0-.1.08-.12.17-.13s.38,0,.68,0l1.3,0v.41c0,.28-.09.36-.17.37h0s-.07,0-.07,0,0,0,0,0Zm-30.27,0v-.36s0-.06,0-.06,0,0,0,.06a.92.92,0,0,1,0,.16c0,.1-.06.12-.15.13s-.39,0-.69,0l-.57,0h1.48Zm-2.25,0a.12.12,0,0,1-.08-.1.44.44,0,0,1,0-.1s0-.05,0-.05,0,0,0,.07,0,.11,0,.18Zm33.3-2.84a17,17,0,0,1,.17,2.39c0,.14,0,.29,0,.44h.29c0-.15,0-.31,0-.45a18.69,18.69,0,0,0-.16-2.39Zm-2.74,0-.49.28a.05.05,0,0,1-.08,0l0,0s0,0,0,.1c0,.25.08.48.1.59s0,.15.05.14l0-.05s0-.08,0-.13,0-.16.29-.34l.88-.55Zm-12.34,0L192,28.77l.13.07.63-1v.94h7.13V28l.53.93.13-.07L200,27.23h-.15l0,.09.07.18h0l.19.47-.19-.32h0l-.14-.25h0l-.11-.18h-.24v1.4H199v-1.4h-.15v1.4h-.15v-1.4h-.14v1.4H198v-1.4h-.14v1.4h-.17v-1.4h-.14v1.4h-.49v-1.4h-.14v1.4h-.15v-1.4h-.15v1.4h-.53v-1.4H196v1.4h-.16v-1.4h-.14v1.4h-.49v-1.4H195v1.4h-.17v-1.4h-.14v1.4h-.51v-1.4h-.14v1.4h-.15v-1.4h-.15v1.4h-.48v-1.4H193l-.07.11-.08.11-.07.11-.26.42.26-.61.06-.14Zm-6.25,0v1.54h1.28V27.23h-.14v1.4h-1v-1.4Zm-3.78,0v.06h0l.09.11v0a.37.37,0,0,0,.05.18h0l.12.17,0,.07h0l-.4.34a.63.63,0,0,0-.24.48v.07h2.23v-.08a.63.63,0,0,0-.23-.48h0l-.41-.34a.16.16,0,0,1-.05-.11V27.5l.08-.05a.37.37,0,0,0,.12-.22h-.15a.16.16,0,0,1-.05.09s0,0,0,0,0,0-.05,0a0,0,0,0,0,0,0h-.14l-.27.07a.33.33,0,0,0-.22.09l0,0-.05.05,0,0-.05-.07,0,0a.26.26,0,0,1,0-.11v-.06a0,0,0,0,0,0,0l0,0,0,0h0l0,0h-.36Zm-4.76,0a12.5,12.5,0,0,0-.22,2.39c0,.14,0,.29,0,.45h.37a.58.58,0,0,1,.5-.3H190a.64.64,0,0,1,.52.3H191a.64.64,0,0,1,.53-.3h11.4a.58.58,0,0,1,.5.3h.38v-.45a13.36,13.36,0,0,0-.21-2.39h-.28a12.36,12.36,0,0,1,.2,1.62.62.62,0,0,1-.59.61H191.5a.63.63,0,0,1-.62-.6V27.23h-.28v1.63a.62.62,0,0,1-.61.6H178.58a.62.62,0,0,1-.59-.61,12.73,12.73,0,0,1,.2-1.63Zm-1,0h0Zm-3.49,0a17,17,0,0,0-.16,2.39v.45h.29c0-.16,0-.31,0-.45a17.27,17.27,0,0,1,.17-2.4Z"/><path class="cls-3" d="M181.69,24h3.43a1.4,1.4,0,0,1-.16.76,1.09,1.09,0,0,1-.26.32c-.1.09-.24.16-.41.29a2.8,2.8,0,0,0-.46.39.7.7,0,0,0-.15.37h0v.07a.27.27,0,0,1-.1.13h0a.19.19,0,0,1-.14.07h0l-.19.05-.13,0h0v-.38h0s0-.06,0-.08a.65.65,0,0,0,0-.13.34.34,0,0,0-.05-.11l0-.05a2.44,2.44,0,0,0-.46-.39c-.18-.13-.3-.2-.4-.29a.85.85,0,0,1-.26-.32,1.27,1.27,0,0,1-.15-.77Zm.23,2.11a2.06,2.06,0,0,1-1.34-1.21,1.38,1.38,0,0,1-.09-.46.61.61,0,0,1,0-.14,2,2,0,0,1,0-.41,3,3,0,0,1,.15-.44,2.53,2.53,0,0,1,.23-.36,2.44,2.44,0,0,1,.32-.3,3.31,3.31,0,0,1,.49-.21,1,1,0,0,1,.24,0c.25,0,.55.09.88.09.13,0,.26-.06.41-.06l.18,0,.19.08.13.06.12.13L184,23a0,0,0,0,0,0,0l0,.08v0s0,0,0,0a1.09,1.09,0,0,1-.41.18,1.8,1.8,0,0,1-.31,0h-.06a1.36,1.36,0,0,1-.58-.28l0,0-.15,0h-.41a1.58,1.58,0,0,0-.67.25.56.56,0,0,0-.19.2.6.6,0,0,1-.09.18h0v0A2.49,2.49,0,0,1,181,24a2.32,2.32,0,0,0-.05.38,1.1,1.1,0,0,0,.12.55.94.94,0,0,0,.34.43,4.6,4.6,0,0,0,.53.32h0a6.22,6.22,0,0,0,.68.24l.26.07h0l0,.16a.43.43,0,0,0,0,.05v.29a3.52,3.52,0,0,1-1-.34M183.44,23a.11.11,0,0,0,.12-.09.12.12,0,0,0-.12-.09c-.05,0-.11,0-.11.09a.1.1,0,0,0,.11.09m8.37.77.09-.09h0a1,1,0,0,1,.73-.29h1.74l-.59,1.37a.82.82,0,0,0-.17-.43,1,1,0,0,0-.5-.29H193a.55.55,0,0,0-.58.47v.05a.52.52,0,0,0,.32.49l.05-.13a.39.39,0,0,1-.23-.36v0a.43.43,0,0,1,.44-.35l.1,0a.75.75,0,0,1,.42.23.64.64,0,0,1,.14.42v0a.9.9,0,0,1-.91.86h-.08a1.21,1.21,0,0,1-1.09-1.06,1.48,1.48,0,0,1,0-.21,1,1,0,0,1,.27-.72m.62-1h2.2l-.19.44h-1.68Zm.51,3.88v-.83a1.16,1.16,0,0,0,.46-.22Zm3.53-7.23a1,1,0,0,1,.83,1.46,1.46,1.46,0,0,1-.15.2l-.2.14,0,0-.1,0h-.06a1.5,1.5,0,0,1-.29,0h-.16a1,1,0,0,1,.18-1.9m3.58,3.35-.34.44h-1.27l-.17-.44Zm-.26,3v.89l-.44-1.13a1.18,1.18,0,0,0,.44.24m.37-2.44a1,1,0,0,1,.73.28,1.06,1.06,0,0,1,.37.81,1.49,1.49,0,0,1,0,.21,1.21,1.21,0,0,1-1.07,1.06H200a.93.93,0,0,1-.89-.86v0a.64.64,0,0,1,.14-.42.75.75,0,0,1,.42-.23l.1,0a.42.42,0,0,1,.44.35v0a.37.37,0,0,1-.24.36l.06.13a.51.51,0,0,0,.32-.49v-.05a.54.54,0,0,0-.58-.47h-.12a1,1,0,0,0-.51.29.79.79,0,0,0-.16.41l-.52-1.35Zm-2.83,0,.82,1.43H194.7l.9-1.43Zm-1.26-.74.44-.7.4.7Zm.92.15.25.44h-1.55l.29-.44Zm-.52-3.07a.68.68,0,1,1,0,1.36.68.68,0,0,1,0-1.36m0,1.5a.82.82,0,1,0-.81-.82.83.83,0,0,0,.81.82m8.8,5.2.81.14,0,0,0,0-.72.41h0l-.09-.57Zm-1.61-2.6a1.65,1.65,0,0,0,.08,1.15,1.78,1.78,0,0,0,.29.5.11.11,0,0,0,.12,0,2.34,2.34,0,0,0,.41-.09l0-.05s0,0-.07,0a.55.55,0,0,1-.25,0c-.18-.07-.27-.21-.38-.47a1.19,1.19,0,0,1,1.55-1.4.87.87,0,0,1,.41.48,1,1,0,0,1,.06.68.45.45,0,0,1-.23.22s-.06,0-.05.06,0,0,.08,0l.33-.12.16-.05s0,0,0-.07,0-.19-.06-.31-.08-.25-.15-.44a1.43,1.43,0,0,0-.69-.81,1.24,1.24,0,0,0-1,0,1.17,1.17,0,0,0-.72.71m-2-3.05a.69.69,0,0,1,.17-.18l.49-.41.31-.25.5-.4h.08a.9.9,0,0,1,.14.14,1.24,1.24,0,0,1,.32.91,1.09,1.09,0,0,1-.42.74,1.07,1.07,0,0,1-.79.29,1,1,0,0,1-.64-.43c-.16-.19-.18-.33-.16-.4m-.48-.31a.75.75,0,0,1-.09-.09l-.05,0s0,0,0,.07l.26.31c.1.12.25.37.39.55a1.46,1.46,0,0,0,1,.59,1.22,1.22,0,0,0,.9-.29,1.13,1.13,0,0,0,.44-.75,1.66,1.66,0,0,0-.52-1.22l-.31-.38-.29-.36s-.05-.05-.07,0l0,.06a.3.3,0,0,1,.07.1c.05.09,0,.15-.06.22l-.51.43-.44.35c-.23.18-.43.34-.55.42s-.13.07-.18,0m-23.25.05.81.23v0l-.35.48h0l-.47-.7v0Zm.68,1.52c.1.14.15.26.08.38l-.05.09v0s0,0,.07,0l.21-.31a3.17,3.17,0,0,0,.21-.27V21.9l0,0,0,0c-.06.09-.11.09-.16.05a.72.72,0,0,1-.13-.15l-.27-.41v0l.42-.57,0,0,.69.19a.08.08,0,0,1,.05.07v.06s0,0,.08-.07l.36-.48c.07-.1.08-.12.06-.14l-.05,0a.41.41,0,0,1-.09.1c0,.05-.14.1-.44,0l-2-.52c-.08,0-.11,0-.13,0s0,.06.05.14Zm-2.48.23.05,0,.07-.09c.05-.05.11-.05.21,0s.17.09.59.33l.49.28c.26.15.48.28.59.36s.11.1.09.16l-.05.11s0,0,0,.05,0,0,.06,0,.15-.3.19-.36.15-.24.25-.42v-.07l-.05,0a.6.6,0,0,1-.09.13c-.06.08-.12.07-.2,0s-.35-.19-.61-.34l-.49-.28-.58-.35c-.09-.06-.12-.11-.1-.19a.79.79,0,0,1,0-.09v-.06s0,0,0,.05-.15.27-.19.34l-.22.35c0,.05,0,.07,0,.08M176,25.44a1.21,1.21,0,0,0,1,0,1.61,1.61,0,0,0,.73-.88,1.76,1.76,0,0,0,.14-.56.13.13,0,0,0-.05-.12,3.5,3.5,0,0,0-.37-.22h0s0,0,0,.07a.53.53,0,0,1,.16.17.68.68,0,0,1-.06.61,1.07,1.07,0,0,1-1.43.51,1.13,1.13,0,0,1-.65-.58.91.91,0,0,1,0-.64,1,1,0,0,1,.43-.52.5.5,0,0,1,.32,0s.06,0,.07,0,0,0,0-.06l-.32-.14-.15-.08-.05,0a2.29,2.29,0,0,0-.17.28,2.57,2.57,0,0,0-.21.41,1.33,1.33,0,0,0-.06,1.06,1.17,1.17,0,0,0,.67.67m29.73,1.79.92-.57c.06-.05.09-.07.08-.1s0,0-.14-.06l-2.1-.44c-.18,0-.29-.08-.34-.22l0-.1,0,0s0,0,0,.06.07.34.07.38,0,.23.05.32,0,.06,0,.05,0,0,0-.05v0c0-.1,0-.14.08-.15a.75.75,0,0,1,.2,0l.48.1,0,0,.12.7v0l-.13.08Zm-7.76,0V26.17a.26.26,0,0,1,.22-.18h0a.26.26,0,0,1,.26.22v1h.14v-1h0a.4.4,0,0,0-.4-.34h0a.39.39,0,0,0-.34.3h0v1.07Zm-.94,0V26.18a.24.24,0,0,1,.21-.19h0a.26.26,0,0,1,.25.21v1h.14v-1a.38.38,0,0,0-.39-.34h0a.37.37,0,0,0-.34.3v1.08Zm-1,0v-1a.4.4,0,0,1,.11-.18.35.35,0,0,1,.15-.07.3.3,0,0,1,.16.07.4.4,0,0,1,.11.18v1h.15V26.18h0a.63.63,0,0,0-.16-.25.51.51,0,0,0-.24-.1l0,.07v-.07a.41.41,0,0,0-.23.1.54.54,0,0,0-.16.25h0v1.05Zm-.93,0v-1a.24.24,0,0,1,.25-.22h0a.24.24,0,0,1,.21.19v1.05h.14V26.16h0a.37.37,0,0,0-.34-.3h0a.38.38,0,0,0-.39.34v1Zm-1,0v-1a.27.27,0,0,1,.26-.21h0a.25.25,0,0,1,.22.19v1.05h.14V26.16h0a.39.39,0,0,0-.34-.3h-.05a.4.4,0,0,0-.4.34v1Zm-1.35,0v0l.07-.16,1.59-3.65h0l0-.07h0l0-.07h0l.2-.44,0-.07,0-.08.68-1.56,0-.07a1.21,1.21,0,0,0,.38.36.92.92,0,0,0,.4.12h.29l-.07.13-.13.18h0l-.54.84,0,.08,0,.07-.27.44h0l0,.07h0l0,.07h0L193,27.23h.27v-.16l.48-.78v.94h.15V26.17h-.07l.76-1.2h3.61l.64,1.1h-.05v1.16H199v-1l.48.86v.13h.24l-2.19-3.83h0l0-.07h0l0-.07h0l-.25-.44,0-.07-.05-.08-.48-.83h0l.13-.19.11-.16h0l.14,0a.94.94,0,0,0,.27-.2h0l.17-.22h0l.65,1.66,0,.08,0,.07.17.44h0l0,.07h0l0,.07h0l1.44,3.73h0l0,.09H200l0-.11V25.89h.21a1.34,1.34,0,0,0,1.23-1.18,1.77,1.77,0,0,0,0-.23,1.13,1.13,0,0,0-.4-.91,1.12,1.12,0,0,0-.82-.33h-.28l.45-.59h-2.13l-.71-1.83a1,1,0,0,0,.09-.41,1.11,1.11,0,1,0-2.22,0,1.13,1.13,0,0,0,.09.45l-.06.17-.71,1.62h-2.54l.43.59a1.13,1.13,0,0,0-.77.33,1.14,1.14,0,0,0-.41.91h0a1.77,1.77,0,0,0,0,.23,1.34,1.34,0,0,0,1.23,1.18h.16V27l-.09.21Zm-10,0-.06-.17v-.12a.25.25,0,0,1,.11-.16l.08-.06.08,0h0l.06,0,.18-.06.18-.05a.39.39,0,0,0,.19-.1l0,0a.13.13,0,0,0,.07-.08.22.22,0,0,0,.05-.08h0v0h0l0,0,.06.1,0,.13v.13a.31.31,0,0,1-.1.15h0l-.06.05-.07,0h0l0,0a.6.6,0,0,1-.29.08h0l-.22.07-.05,0h0l-.07,0a.27.27,0,0,0-.08.07h0l0,0h.26l.15-.06.15,0,.17,0h0l.09,0,0,0h0l0,0h0s0,0,0,0l0,.05h0a.2.2,0,0,1,.05.15h0v0H184v0h0a.32.32,0,0,0-.09-.24h0l0,0s0,0,0,0a.56.56,0,0,0,.14-.2v-.2l0-.15h0L184,26.2v0l-.12-.11a.45.45,0,0,1,.1-.21,2.22,2.22,0,0,1,.43-.36l.42-.3a1.14,1.14,0,0,0,.29-.37,1.47,1.47,0,0,0,.18-.89v-.07h-3.72V24a1.43,1.43,0,0,0,.17.83,1,1,0,0,0,.3.37l.41.3a2.51,2.51,0,0,1,.34.26l-.08,0h0l-.63-.22c-.2-.13-.36-.21-.49-.31a.85.85,0,0,1-.3-.37,1,1,0,0,1-.11-.5,2.11,2.11,0,0,1,0-.35,2.07,2.07,0,0,0,.06-.24c.05-.09.07-.14.09-.18a.4.4,0,0,1,.15-.15,1.44,1.44,0,0,1,.6-.23h.36l.14,0h0a1.48,1.48,0,0,0,.65.3h.07a1.42,1.42,0,0,0,.34,0,1.24,1.24,0,0,0,.49-.21l0,0h.08a.76.76,0,0,0,.19,0,.43.43,0,0,0,.15-.11l.07-.06h-.22a1.23,1.23,0,0,1-.25,0h0s0,0,0,0v0h0c-.1-.1-.13-.16-.17-.2a.94.94,0,0,0-.14-.13h0l-.16-.09-.21-.08-.22,0a3.83,3.83,0,0,0-.41.06c-.3,0-.6-.09-.88-.09a.86.86,0,0,0-.28,0,2.93,2.93,0,0,0-.52.22h0a2.29,2.29,0,0,0-.35.33,3.36,3.36,0,0,0-.25.38h0a2.68,2.68,0,0,0-.16.46,2.25,2.25,0,0,0,0,.44v.16a1.92,1.92,0,0,0,.11.48,2.21,2.21,0,0,0,1.42,1.31,4.22,4.22,0,0,0,1,.34.32.32,0,0,0-.12.08.44.44,0,0,0-.16.23.38.38,0,0,0,0,.1.28.28,0,0,0,0,.09h0l.05.13Zm-5.9,0a.08.08,0,0,0,0-.05c0-.13.06-.32.08-.39s.08-.28.13-.48c0,0,0-.07,0-.07s0,0,0,0a.75.75,0,0,1,0,.16c0,.09-.09.1-.18.09l-.68-.15-.55-.13L175,26.1c-.1,0-.15-.07-.14-.16a.25.25,0,0,1,0-.09l0-.06s0,0,0,.06-.06.3-.08.38l-.1.4c0,.06,0,.07,0,.08l0,0a.36.36,0,0,1,0-.11c0-.06.09-.09.19-.06a5.91,5.91,0,0,1,.66.14l.55.13a6.16,6.16,0,0,1,.67.17c.09,0,.14.06.14.12a.3.3,0,0,1,0,.12v0Zm27.13-8.53.11.13.13.17.12.16a17.06,17.06,0,0,1,3.37,8.07h.29a17.42,17.42,0,0,0-2.93-7.55,1.73,1.73,0,0,0,.32.14,1.57,1.57,0,0,0,.56.11h.17l.17-.07a.52.52,0,0,0,.17-.13.38.38,0,0,0,.1-.21.5.5,0,0,0,0-.12.58.58,0,0,0,0-.18.35.35,0,0,0-.13-.14.52.52,0,0,0-.22-.1.53.53,0,0,0-.21,0h0a.6.6,0,0,0-.22,0l-.12,0h-.14l-.05,0c-.1-.08-.13-.1-.13-.11l-.09-.15H205a.49.49,0,0,0,.06.13c.07.11.08.15.12.21l.18.15a.38.38,0,0,0,.17.08.36.36,0,0,0,.14,0h.06a.87.87,0,0,0,.21,0l.13,0h.17a.45.45,0,0,1,.13.06l0,0v.11a.22.22,0,0,1,0,.08l-.1.07-.08,0H206a1.22,1.22,0,0,1-.46-.1,1.32,1.32,0,0,1-.46-.25l-.14-.12,0,0-.16-.18v0a1.38,1.38,0,0,1-.13-.2h0l0,0h-.17l.07.11h0v0l-.11-.14Zm-3.64,0,.31.26v0l-.24.68a.05.05,0,0,1-.07,0h-.05s0,0,.06.09l.46.38c.09.08.11.1.13.07v0a.94.94,0,0,1-.1-.1c0-.05-.08-.14,0-.44l.31-1h-.39l0,.1h0l-.12-.1Zm-1.29,0,.21.17c.08.06.17.16.25.22h.06l0-.05,0,0c-.08-.06-.08-.11,0-.15a.39.39,0,0,1,.15-.12l.08-.05Zm-1.75,0,.37.23a12.76,12.76,0,0,1,5.54,8.29h.28a13,13,0,0,0-5.68-8.53Zm-6.78,0v8.53h.28V18.7Zm-3,0V21h2.21v1h-2.21v5.19h.13V22.18H190V20.87h-2.22V18.7Zm-1.15,0v2.17h-2.18v1.31h2.18v5.05h.14V22h-2.17V21h2.16l0-.13h0V18.7Zm-2.86,0a13,13,0,0,0-5.68,8.52h.27a12.78,12.78,0,0,1,5.54-8.3l.37-.23Zm-3.27,0,.09.12a1.09,1.09,0,0,0,.75.49,1.07,1.07,0,0,0,.69-.26,1,1,0,0,0,.29-.34H182a.52.52,0,0,1-.16.17.56.56,0,0,1-.39.15.78.78,0,0,1-.55-.32Zm-4.14,0A.55.55,0,0,1,176,19s0,0-.07,0h-.13l-.12,0a.55.55,0,0,0-.22,0h0a.46.46,0,0,0-.2,0,.5.5,0,0,0-.23.1.44.44,0,0,0-.13.14.57.57,0,0,0,0,.18.49.49,0,0,0,0,.12.39.39,0,0,0,.11.21.4.4,0,0,0,.16.13l.16.07h.19a1.15,1.15,0,0,0,.45-.09,5,5,0,0,0,.47-.2,17.45,17.45,0,0,0-3,7.58h.29a17.12,17.12,0,0,1,3.33-8c.07-.08.13-.17.2-.26l.2-.25h-.36l-.19.24.08-.12h0l.06-.11h-.16l0,0-.17.26a1,1,0,0,1-.16.18l-.16.14a3.09,3.09,0,0,1-.56.26,1.08,1.08,0,0,1-.34.07h-.12l-.09,0a.25.25,0,0,1-.09-.07.12.12,0,0,1,0-.08v-.11l0,0h0a.36.36,0,0,1,.13-.06h.17l.13,0a.87.87,0,0,0,.21,0h.06a.39.39,0,0,0,.15,0,.4.4,0,0,0,.16-.08.89.89,0,0,0,.31-.37l.05-.12Z"/><path class="cls-3" d="M199.8,18.7l.35-.19h0l.23.19h.25l-.33-.28v0l.73-.41h0v0l-.25.69h.39l.34-1c0-.08,0-.11,0-.13s-.07,0-.16,0l-1.9,1c-.14.08-.26.13-.38,0l-.08-.05h0s0,0,0,.06a.27.27,0,0,0,.08.07Zm-13.2,0v0h1v0h.14v-.18h-1.29v.18Zm-2.5,0A12.71,12.71,0,0,1,190,16.87a.61.61,0,0,1,.61.58V18.7h.28V17.45a.62.62,0,0,1,.62-.58,12.71,12.71,0,0,1,5.88,1.83h.51a13,13,0,0,0-14.29,0Zm-1.95,0a.85.85,0,0,0,.09-.24,1.19,1.19,0,0,0-.35-.94l-.21-.28-.42-.53c-.06-.09-.07-.14,0-.21l.06-.07,0-.06s0,0-.07,0l-.28.23-.3.22s-.05.05,0,.07l.06,0,.1-.06c.09,0,.15,0,.22.06l.42.53.24.31a1.17,1.17,0,0,1,.35.74.79.79,0,0,1-.09.23Zm-1.29,0-.13-.15-.27-.35a5.31,5.31,0,0,1-.41-.54c-.06-.08-.08-.14,0-.21l.07-.06,0-.06s0,0-.07,0l-.3.24-.37.28s-.06.05,0,.07h.06a.34.34,0,0,1,.11-.07c.09-.05.14,0,.21.06a4.46,4.46,0,0,1,.43.52l.19.25Zm21.63-2.84c0,.06,0,.13,0,.19a1.11,1.11,0,0,0,.06.34h0a.82.82,0,0,0,.23.33.67.67,0,0,0,.4.2h0l.27,0h0l.29,0a.32.32,0,0,0-.09.17h0a.28.28,0,0,0,0,.09.34.34,0,0,0,.15.3.3.3,0,0,0,.18.06H204c0,.09,0,.18.06.29a4.11,4.11,0,0,0,.37.86h.17a1.5,1.5,0,0,1-.16-.28,3.92,3.92,0,0,1-.25-.61c0-.13,0-.22-.06-.36v-.1l-.09,0-.1,0a.14.14,0,0,1-.1,0,.2.2,0,0,1-.09-.18v-.06a.39.39,0,0,1,.1-.15.35.35,0,0,1,.16-.1h.2a.51.51,0,0,1,.2,0l0,0a.42.42,0,0,1,.07.12.14.14,0,0,0,0,.09c0,.16.07.44.15.75a3.21,3.21,0,0,0,.26.81h.31a3.17,3.17,0,0,1-.3-.87,3,3,0,0,1-.09-.49l.17,0h0a.69.69,0,0,0,.49-.19l0,0,.11-.16h0a.55.55,0,0,0,.09-.3.51.51,0,0,0-.08-.29.59.59,0,0,0-.35-.31h0c0-.07,0-.14.06-.2h-.07a1.89,1.89,0,0,1-.06.18.37.37,0,0,1,0,.11v0h0s0,0,0,0h0s0,0,0,0h0s0,0,0,0a.37.37,0,0,0,0-.11l.06-.18h-.23a2.25,2.25,0,0,1-.08.24v0h-.25a1.34,1.34,0,0,0-.34,0l-.3,0h0a2.53,2.53,0,0,1-.38.07h-.2a.2.2,0,0,1-.19-.11.15.15,0,0,1-.05-.13V16a.2.2,0,0,1,0-.09h-.15s0,.05,0,.08V16a.35.35,0,0,0,.07.21.36.36,0,0,0,.31.17h.22a2.66,2.66,0,0,0,.39-.07h0l.3-.05h0l.31,0h.07l.24,0,0,0,.17.05h0a.3.3,0,0,1,.21.17.34.34,0,0,1,0,.16.26.26,0,0,1-.06.15h0l-.09.13a.4.4,0,0,1-.29.12h0a.53.53,0,0,1-.29-.1h0l-.08-.08-.09-.07h0a.59.59,0,0,0-.17-.07l-.14,0-.14,0h0l-.27,0h0l-.33,0-.25,0a.6.6,0,0,1-.34-.16.75.75,0,0,1-.18-.28.79.79,0,0,1-.06-.29,1.37,1.37,0,0,1,0-.19Zm-1.39,0a18.23,18.23,0,0,1,1.82,1.58c.4.4.78.83,1.14,1.27h.37a17.84,17.84,0,0,0-2.82-2.81l.21,0Zm-3,0c-.05.07-.11.16-.18.28l-.3.47c-.16.25-.29.46-.38.57s-.1.13-.16.1a.34.34,0,0,1-.11-.05s0,0-.06,0,0,0,0,.06l.35.2c.13.09.35.27.55.4a1.46,1.46,0,0,0,1.11.24,1.32,1.32,0,0,0,.77-.57,1.17,1.17,0,0,0,.16-.85,1.4,1.4,0,0,0-.69-.85h-.27a1.2,1.2,0,0,1,.54.71,1,1,0,0,1-.16.84,1,1,0,0,1-.64.54,1.1,1.1,0,0,1-.75-.2c-.22-.13-.28-.26-.28-.33a.49.49,0,0,1,.09-.22c0-.05.16-.27.34-.55l.21-.34.28-.45Zm-1.94,0-.06.14c-.1.29-.2.52-.26.65s-.08.13-.14.12l-.11,0s-.06,0-.06,0,0,0,0,.05l.39.14.46.18s0,0,.06,0,0,0,0,0a.61.61,0,0,1-.14-.07c-.08,0-.08-.11-.06-.19a6,6,0,0,1,.23-.65l.11-.29Zm-3.23,0a1.37,1.37,0,0,0,.2.21.61.61,0,0,0,.33.1l.3,0h0l0,0a1.32,1.32,0,0,0,.43.2,1,1,0,0,0,.53,0,.64.64,0,0,0,.43-.45c0-.05,0-.08,0-.12h-.37a.59.59,0,0,1,0,.19.41.41,0,0,1-.52.24.44.44,0,0,1-.35-.43h-.11c0,.07-.05.16-.07.25v.05h0l-.08,0a.67.67,0,0,1-.33-.26l0,0Zm-1.35,0h-.15s0,0,0,0,0,0,.06,0,.32,0,.39.05l.46.06s.06,0,.07,0l0,0-.15,0a.12.12,0,0,1-.1-.09Zm-2,0a.1.1,0,0,1-.06.05h-.11s-.06,0-.06,0,0,0,.07,0l.4,0c.19,0,.4,0,.88,0,.12,0,.16,0,.17-.09s0,0,0,0Zm-1.78,0,.13.2c.09.14.12.18.16.17s.05-.06.1-.25l0-.12Zm-2,0,.2.65c0,.09,0,.15-.05.18l-.1,0s0,0,0,0,0,0,.07,0l.38-.14.47-.14s.06,0,.05-.05a0,0,0,0,0-.05,0l-.17,0c-.09,0-.13,0-.16-.11s-.11-.29-.19-.52Zm-3.62,0,0,0,.83,1.69c.12.26.15.34.09.4l-.12.08,0,.05s0,0,.07,0l.31-.17.35-.17s.06,0,.05-.07,0,0-.06,0a.44.44,0,0,1-.15.05c-.07,0-.15,0-.26-.26l-.64-1.18h0c.07,0,.57.22,1,.37l1.26.41c.05,0,.1,0,.13,0s0,0,0-.11l-.56-1.14h-.26l.4.73h0l-.95-.33c-.48-.15-1-.33-1.21-.41Zm-2.46,0,.23,0a17.84,17.84,0,0,0-2.82,2.81h.37v0a16.42,16.42,0,0,1,1.13-1.24,18.12,18.12,0,0,1,1.81-1.58Zm-3.31,0a1.08,1.08,0,0,0,.08.19,1.08,1.08,0,0,1,0-.19Zm-.24,0,0,.22a.86.86,0,0,0-.32.28.67.67,0,0,0-.09.36,1.09,1.09,0,0,0,0,.26l0,0,.1.14,0,0a.83.83,0,0,0,.42.18l.16,0h0c0,.14,0,.27-.07.43s-.07.32-.1.45a2.17,2.17,0,0,1-.15.42h.3a1.65,1.65,0,0,0,.13-.37c0-.14.05-.28.09-.45a2.23,2.23,0,0,0,0-.23c.06-.22.1-.42.15-.55a.29.29,0,0,1,.08-.17.11.11,0,0,1,.06,0,.44.44,0,0,1,.19,0h.2a.35.35,0,0,1,.16.1.35.35,0,0,1,.09.15v.06a.2.2,0,0,1-.09.18.17.17,0,0,1-.11,0l-.1,0-.09,0v.1a1.93,1.93,0,0,1-.06.36,2.57,2.57,0,0,1-.24.61c-.06.13-.13.23-.15.29H177a3.79,3.79,0,0,0,.37-.85,1.88,1.88,0,0,0,.06-.29h.06a.33.33,0,0,0,.19-.06.36.36,0,0,0,.15-.3v-.09a.38.38,0,0,0-.08-.17l.26,0h0l.27,0a.7.7,0,0,0,.4-.2.71.71,0,0,0,.22-.33.9.9,0,0,0,.07-.34c0-.06,0-.13,0-.2h-.14c0,.07,0,.13,0,.19a.63.63,0,0,1-.06.29.64.64,0,0,1-.18.28.6.6,0,0,1-.34.16l-.25,0-.33,0h0l-.26,0h0l-.14,0-.14,0a.54.54,0,0,0-.16.06h0a.35.35,0,0,0-.09.07l-.12.1a1.06,1.06,0,0,1-.24.12h-.11a.42.42,0,0,1-.26-.12l-.07-.09a.45.45,0,0,1,0-.16.37.37,0,0,1,.06-.21.56.56,0,0,1,.28-.21s0,0,0,0l.29,0h.07l.31,0,.31.05a2.66,2.66,0,0,0,.39.07H178a.36.36,0,0,0,.31-.17.34.34,0,0,0,.06-.21v-.08a.19.19,0,0,0,0-.08h-.15a.64.64,0,0,1,0,.09V16a.28.28,0,0,1,0,.13.22.22,0,0,1-.2.11h-.2a2.53,2.53,0,0,1-.38-.07h0l-.3,0a1.34,1.34,0,0,0-.34,0h-.29s0,0,0,.05h0l-.09.05.09-.05h0s0,0,0-.05l0-.07a1.08,1.08,0,0,1-.08-.19Z"/><path class="cls-3" d="M192.12,14.77l.12-1,0,0h.17c.19,0,.47.18.41.64a.58.58,0,0,1-.24.45c-.06,0-.1,0-.23,0a.65.65,0,0,1-.24-.06s0,0,0-.06m-11.91-.32a.26.26,0,0,1-.18.06.68.68,0,0,1-.45-.22.66.66,0,0,1-.17-.39.26.26,0,0,1,.27-.27.64.64,0,0,1,.44.23.6.6,0,0,1,.18.39.24.24,0,0,1-.09.2m-.53-1a.42.42,0,0,0-.27.09.4.4,0,0,0-.14.32.7.7,0,0,0,.21.48.76.76,0,0,0,.55.28.44.44,0,0,0,.27-.09.4.4,0,0,0,.14-.32.69.69,0,0,0-.22-.49.75.75,0,0,0-.54-.27m24,.59a1.51,1.51,0,0,0-.3,0h0a1.51,1.51,0,0,1,.3,0M201,15.26h0l0-.06h0l-.07,0a.52.52,0,0,0-.18-.1l-.12,0h-.11l0-.06h.07l.07,0h0l.13,0a.54.54,0,0,1,.13.07h0l.31-.2,0,0-.32.21,0,0a.61.61,0,0,1,.07.1,1,1,0,0,1,.05.11h0l0,0h0l.07,0,0,0h0l0,0h0l-.09,0a.9.9,0,0,0,0-.09.56.56,0,0,0-.07-.13m-.54-.18h.12l.11,0a.48.48,0,0,1,.16.08l.05.05.05.06a.81.81,0,0,1,.06.13.25.25,0,0,1,0,.07c-.19-.14-.39-.29-.6-.42Zm.2-1.93h0Zm-.46.45h0l-.07,0a.93.93,0,0,0,.48-.32v.05a.24.24,0,0,0,0,.09v.09l0,0-.05,0h-.06l-.07,0,0,0,0,.08a.14.14,0,0,1-.09,0m.14,0h0v0s.05,0,.08,0h.07a.14.14,0,0,0,.1,0h0l0-.06h0a.28.28,0,0,0,0-.09v0a.3.3,0,0,0,0-.1v0l.07-.08h.05l-.06.05,0,.08s0,.07,0,.1h0v.09l0,.07v0l.12.15.1.11h0l-.11-.1-.11-.1h-.2l-.07,0h0v0s0,0-.08,0h0a.15.15,0,0,0,.1-.06m2.91,2.25a.31.31,0,0,1,.09-.14.25.25,0,0,1,.18-.06h.05v-.14a.26.26,0,0,1-.22-.14h0a.43.43,0,0,1,0-.17v0a.4.4,0,0,1,0-.15.34.34,0,0,1,.18-.21.38.38,0,0,1,.17,0l.12,0a.43.43,0,0,1,.26.15.47.47,0,0,1,.07.12.58.58,0,0,0,.06.17l.13-.06a1,1,0,0,1-.06-.16.44.44,0,0,0-.1-.17.53.53,0,0,0-.33-.19l-.15,0a.53.53,0,0,0-.49.34.69.69,0,0,0,0,.2v0a.45.45,0,0,0,.06.24.28.28,0,0,0,.09.1l-.07,0a.4.4,0,0,0-.16.25Zm-4.77,0,0-.09.06,0,.19.09.06,0h.27l-.2-.14a3.86,3.86,0,0,1-.42-.25c-.08,0-.24-.16-.39-.24s-.06,0-.07,0l0,.06a.18.18,0,0,1,.1.07c.08.07.07.12,0,.22l-.17.3Zm-2,0,.09-.23a6,6,0,0,1,.26-.63c0-.11.08-.15.16-.13l.1,0h.06s0,0,0-.05l-.37-.13-.38-.15c-.05,0-.08,0-.08,0l0,.05.11.05s.06.11,0,.21-.06.18-.23.63l-.15.38Zm-1.34,0a1.11,1.11,0,0,0-.31-.81l-.07-.08c-.21-.27-.25-.39-.21-.54a.33.33,0,0,1,.45-.21.39.39,0,0,1,.3.24.36.36,0,0,1,0,.22s0,.06,0,.07.05,0,.07-.09a3.7,3.7,0,0,1,.11-.36l0-.05a1.71,1.71,0,0,0-.39-.17.66.66,0,0,0-.87.39.94.94,0,0,0,.26.86l.11.15a.83.83,0,0,1,.19.38Zm-1.25,0c0-.06,0-.13,0-.16v-.06s-.05,0-.06.07a1.24,1.24,0,0,0,0,.15Zm-1.92,0v-.1c0-.13,0-.39.06-.68V15l0,0,.27,0,.05,0c0,.05.16.28.27.47s.12.22.17.3h.43c-.16-.22-.34-.52-.57-.9a.83.83,0,0,0,.5-.65.57.57,0,0,0-.15-.47,1.15,1.15,0,0,0-.57-.2l-.45-.05-.43-.06s-.07,0-.07,0,0,0,.05,0l.12,0c.1,0,.12.09.12.19s0,.2-.08.67l-.07.56a6.28,6.28,0,0,1-.1.67c0,.08,0,.14-.08.16Zm-1.2,0a2,2,0,0,0,0-.33s0-.07,0-.06,0,0,0,0a.28.28,0,0,1-.14.24,1.08,1.08,0,0,1-.3,0c-.32,0-.38,0-.39-.26s0-.39,0-.49v-.26l0,0h.45c.12,0,.16.06.18.13a.45.45,0,0,1,0,.11l0,0,0-.07a1.4,1.4,0,0,1,0-.21c0-.16,0-.21,0-.23l0,0-.05,0a.24.24,0,0,1-.15.05H190l0,0,0-.81,0,0h.46c.15,0,.19.06.21.11a.3.3,0,0,1,0,.12l0,0,0,0a1.34,1.34,0,0,0,0-.2,1.4,1.4,0,0,1,0-.21l0,0h-.05l-.14,0h-1.26s-.07,0-.06,0,0,0,0,0a.21.21,0,0,1,.12,0c.11,0,.13.07.14.17s0,.2,0,.68v.56c0,.3,0,.55,0,.68l0,.12Zm-2.66,0c0-.2.13-.51.22-.92s.16-.6.23-.91.08-.28.12-.32a.26.26,0,0,1,.15-.06s.05,0,0,0,0,0-.07,0l-.29.06-.33,0c-.06,0-.09,0-.08.05l0,0h.13l0,.05v.13c0,.21-.28,1.3-.35,1.67h0l-.79-1.33a1.77,1.77,0,0,1-.12-.23l0-.07s.07,0,.12,0l0,0s0,0-.07,0l-.38.08-.47.07s-.08,0-.07,0l0,0h.12a.35.35,0,0,1,.29.2l1,1.58Zm-2,0a.74.74,0,0,0,0-.14l-.17-.53-.21-.64c0-.12,0-.17.06-.21a.18.18,0,0,1,.09,0l0-.05h-.07l-.37.13-.4.12s-.07,0-.06,0l.06,0,.11,0c.07,0,.12,0,.16.14l.21.64.17.54h.42Zm-1.7,0-.33-.66c-.07-.16-.08-.24,0-.29l.08-.06s0,0,0,0,0,0-.08,0l-.28.15-.34.16c-.05,0-.07,0-.06.07s0,0,.06,0a.34.34,0,0,1,.15-.06c.08,0,.14,0,.23.21l.28.52Zm-2,0-.14,0c-.07,0-.11-.05-.15,0s0,0,0,.08Zm-4.07,0a.44.44,0,0,0-.15-.25l-.08,0a.28.28,0,0,0,.09-.1.45.45,0,0,0,.06-.24v0a.48.48,0,0,0,0-.2.43.43,0,0,0-.25-.28.46.46,0,0,0-.22-.06l-.17,0a.59.59,0,0,0-.33.19.4.4,0,0,0-.09.17,1,1,0,0,1-.06.16l.13.06a1.2,1.2,0,0,0,.06-.17.21.21,0,0,1,.07-.12.43.43,0,0,1,.26-.15l.13,0a.34.34,0,0,1,.16,0,.37.37,0,0,1,.18.21.4.4,0,0,1,0,.15v0a.43.43,0,0,1,0,.17.27.27,0,0,1-.22.13h0v.14h0a.26.26,0,0,1,.18.06.24.24,0,0,1,.09.14Zm17-2.84a17.14,17.14,0,0,1,5.74,2.84h.72l.19,0a2,2,0,0,0,.52-.2.6.6,0,0,0,0,.2s0,0,0,0h.15v0a1.15,1.15,0,0,1,.07-.36l.06-.19-.17.11a1.79,1.79,0,0,1-.63.28,3.4,3.4,0,0,1-.5.1v0l-.3-.23h.06l.06,0,0,0,.05-.08v0l-.06-.06h0l-.08,0,0,0-.05-.11a.47.47,0,0,1-.06-.09l.3-.19h.08a.69.69,0,0,0,0,.13l0,.06h0a.32.32,0,0,0,0,.12l0,.07a.11.11,0,0,0,.08.07h0a.38.38,0,0,0,.15,0c.15-.08.34-.21.34-.21l.4-.29.23-.2h0l.36-.46.07-.08.09,0h.19a1.64,1.64,0,0,1,1.5.79,1.41,1.41,0,0,1,.12.27.54.54,0,0,1,0,.22,1,1,0,0,1,0,.16c0,.05,0,.16-.07.27h.23a1,1,0,0,0,.05-.23,1.56,1.56,0,0,0,0-.2,1.32,1.32,0,0,0-.17-.58,1.87,1.87,0,0,0-1.37-.9,1.87,1.87,0,0,1,1.37.9,1.32,1.32,0,0,1,.17.58v.2s0,.13-.06.23h.07a1.39,1.39,0,0,0,0-.23,1.5,1.5,0,0,0,0-.2.75.75,0,0,0-.06-.31c0-.1-.08-.19-.13-.31a1.92,1.92,0,0,0-1.7-.94,3,3,0,0,0,.12-.3,1.42,1.42,0,0,0,.13-.47V13h-.22s0,0,0,.05h0a1.29,1.29,0,0,1-.11.42,3.81,3.81,0,0,1-.32.49s-.09.1-.13.16l-.36.45-.22.19-.39.28-.18.13-.14.07-.08,0h0v-.07l0-.1h0a1.56,1.56,0,0,1,.08-.31,0,0,0,0,0,0,0,1.42,1.42,0,0,0,.08-.2l-.14-.05h0s0,.11-.07.19,0,0,0,0l-.05.07,0,0h0c-.06,0-.08,0-.13-.11a.56.56,0,0,1,0-.19v-.25l-.09.05h0a.59.59,0,0,1-.21.05h-.05a.34.34,0,0,1-.14-.08l-.05,0a1,1,0,0,0,.15-.12,1.43,1.43,0,0,0,.24-.25,1.36,1.36,0,0,0,.15-.4v0a.21.21,0,0,0,0-.12.59.59,0,0,1,0-.08.68.68,0,0,1,0-.15s0-.07,0-.1H201v.1a1,1,0,0,0,0,.18.44.44,0,0,0,.06.12l0,.05h0a1.22,1.22,0,0,1-.13.32l-.08-.09-.09-.11,0-.06v-.11h0v-.15h0s0,0,0-.06a.1.1,0,0,0-.11-.09l-.06,0a.59.59,0,0,1,0-.08s0,0,0,0h-.15a.91.91,0,0,1-.84.47,1.4,1.4,0,0,1-.41-.06h0a2.83,2.83,0,0,0-1-.27l-.19,0-.29,0-.1-.19h-.16l.15.3,0,0,.4-.07h.16a2.54,2.54,0,0,1,1,.27h0a1.51,1.51,0,0,0,.46.07,1.36,1.36,0,0,0,.36-.05l0,.06a.18.18,0,0,0,.16.12h0a.14.14,0,0,0,.11,0h.23l.1.1.11.11a.71.71,0,0,1-.13.12l-.12.09a.46.46,0,0,0-.07.07h0v.06a.29.29,0,0,0,0,.1.81.81,0,0,0,.27.16h.09a.59.59,0,0,0,.2,0,.2.2,0,0,0,0,.07.41.41,0,0,0,.07.24h0a.1.1,0,0,0,0,0L201,15a.42.42,0,0,0-.14-.06.28.28,0,0,0-.13,0l-.06,0h0a.15.15,0,0,0-.08,0l0,0a.14.14,0,0,0-.07.12v.05a17.53,17.53,0,0,0-4.14-2Zm-10.19,0A17.61,17.61,0,0,0,180,15.8v0a3.54,3.54,0,0,1-.49-.1,1.84,1.84,0,0,1-.64-.28l-.16-.11.06.19a1.53,1.53,0,0,1,.07.36v0H179a.09.09,0,0,1,0,0,.6.6,0,0,0,0-.2,2,2,0,0,0,.52.2l.19,0h.73A17.09,17.09,0,0,1,186.13,13Zm-5,0,.09.06.05,0,.09-.1Zm-1.52,0a.92.92,0,0,0-.2.6,1.86,1.86,0,0,0,.53,1.21,1.66,1.66,0,0,0,1.15.57,1,1,0,0,0,.61-.21,1.05,1.05,0,0,0,.45-.84,1.55,1.55,0,0,0-.22-.75l.51-.56.12.14.09.1.07.07.05.06h0a1.08,1.08,0,0,0,.14.15.17.17,0,0,0,.13.07.19.19,0,0,0,.09,0l.08-.07h0l.06-.06A4.57,4.57,0,0,1,183,13h-.29a4.38,4.38,0,0,0-.55.4h0l-.06.05h0a1.46,1.46,0,0,1-.16-.17l-.05-.06.28-.23h-.22l-.15.13h0l-.11-.13h-.35l-.52.56,0,0a1.42,1.42,0,0,1,.24.73.94.94,0,0,1-.4.73.8.8,0,0,1-.52.18,1.57,1.57,0,0,1-1.05-.53,1.7,1.7,0,0,1-.49-1.11.8.8,0,0,1,.25-.6Zm-1.06,0a1.36,1.36,0,0,0-.06.29v.12a2.08,2.08,0,0,0,.11.62l0,.08h-.09a1.44,1.44,0,0,0-1.17.77,1,1,0,0,0-.16.52,1.83,1.83,0,0,0,0,.21,1.94,1.94,0,0,0,.06.22h0a1.39,1.39,0,0,1,0-.23,1.91,1.91,0,0,1,0-.2.89.89,0,0,1,.15-.48,1.35,1.35,0,0,1,1.12-.74.15.15,0,0,0,.11-.07.2.2,0,0,0,0-.11,2.91,2.91,0,0,1-.11-.58s0-.09,0-.13a1.63,1.63,0,0,1,.07-.3Zm-.22,0a2.38,2.38,0,0,0,0,.26,1,1,0,0,0,0,.17,2.09,2.09,0,0,0,.08.5,1.66,1.66,0,0,0-1.19.86,1.32,1.32,0,0,0-.17.62c0,.07,0,.15,0,.23s0,.12,0,.2h.24a1.94,1.94,0,0,1-.06-.22,1.83,1.83,0,0,1,0-.21,1,1,0,0,1,.16-.52,1.42,1.42,0,0,1,1.17-.77h.09l0-.08a2.08,2.08,0,0,1-.11-.62v-.12a1.36,1.36,0,0,1,.06-.29Z"/><path class="cls-3" d="M202.89,11.25l-.12.1H203Zm-16.6-.59a.29.29,0,0,1,.2-.15h0a.29.29,0,0,1,.22.12.72.72,0,0,1,.15.33v.11a.61.61,0,0,1-.08.32.32.32,0,0,1-.19.16h0a.31.31,0,0,1-.22-.12.59.59,0,0,1-.14-.33V11a.63.63,0,0,1,.07-.32m0,.85a.43.43,0,0,0,.32.17h.08a.49.49,0,0,0,.29-.22.74.74,0,0,0,.1-.4s0-.09,0-.13a.81.81,0,0,0-.17-.4.45.45,0,0,0-.34-.17h-.07a.53.53,0,0,0-.29.22.88.88,0,0,0-.1.4s0,.09,0,.14a.83.83,0,0,0,.18.39m6.76.75a17.23,17.23,0,0,0-2.28-.15,19.62,19.62,0,0,0-2.31.15,9.5,9.5,0,0,0,1.06-.36c.31-.12.49-.19.78-.33l.43.25h.07l.43-.25c.29.14.47.21.77.33s.7.26,1.05.36m-15.73.33-.07-1.29,2.74-.15a.07.07,0,0,0,.06,0l.45.6-1.3.07v.06s0,.23,0,.65l-.31,0v-.35l-.95.05,0,.35-.28,0h-.39Zm6.41-1.85-.07,0-.25.06a3.45,3.45,0,0,0-.4.11,2.72,2.72,0,0,0-.5.19,3.63,3.63,0,0,0-.59.32c-.11.07-.21.15-.3.22a1.73,1.73,0,0,0-.2.15l-.22.19-.18.17h0l-.17-.22h0l.13-.11.18-.16.14-.11a3.83,3.83,0,0,1,.49-.33,1.52,1.52,0,0,1,.25-.14h0l0,0h0V11a.24.24,0,0,1,0-.12.35.35,0,0,1,.18-.22.45.45,0,0,1,.16,0h.09l.14.07s0,0,.06.06l0,0h.05a1,1,0,0,1,.26-.1,4.27,4.27,0,0,1,.57-.16l.11,0,.23-.05.23,0h0l0,.14,0,.13-.53.08m.49.79h-.06a4.74,4.74,0,0,0-.57.16l-.24.09a.27.27,0,0,0-.08-.07.52.52,0,0,0-.29-.09l-.15,0-.06,0-.11.08a.54.54,0,0,0-.17.26.59.59,0,0,0,0,.13.43.43,0,0,1,0,0l-.33.19-.38.27-.22.18h0l-.42-.52s0,0,0,0l.21-.19.34-.29.21-.15a5,5,0,0,1,.69-.4,3.81,3.81,0,0,1,.67-.24l.26-.07.24,0h0l.42-.08.12,0s0,0,0,.07c0,.22.09.44.13.62l-.21,0m13.53,0,.46-.59.63.08Zm1.1-.41-.25.52-.81,0Zm.14.07.19,1.13-.46-.61Zm1.07-.1h0l-.21,0-.22,0h0l-.42,0,.15-.08.07-.05.08,0h0l.2-.11v0l.7.42Zm-.55.44-.21.78-.2-1.15Zm-.32-.45.77.11h0l.23,0h0l.22,0h0l-.09,0h0l-.1,0h0l-.6.16Zm-1.37-.89.26.67-.72.91,0,.06h0l1.19,0,.69,1h.06l.31-1.13.76-.22.5.25a2,2,0,0,0-.13.63h0a2,2,0,0,1-.13.72h0v0h.15a.3.3,0,0,0,0-.1l.06,0H201v0h.14v0a.28.28,0,0,0,0-.06l0-.1-.1,0h-.16s0,0,0-.06v0h0l0-.31,0-.42.1-.34a1.81,1.81,0,0,1,.19-.3l.14-.17a.67.67,0,0,1,.13-.13l.13-.11a1.59,1.59,0,0,1,.32-.16l.08,0s0,.05,0,.08a1.3,1.3,0,0,1,0,.15.38.38,0,0,1,0,.1,1,1,0,0,1,0,.22,1,1,0,0,1-.1.33l0,.09-.06.12-.08.16.28-.1h0l0,0,.06,0h0v-.13h.06l0,0,0,0h0l0,0,0,0,.05,0h.09l.07,0,0-.07a.84.84,0,0,0-.06-.14l-.11-.11-.11,0h0l0-.06,0,0h.1l.06-.06h0l.05,0h.14l.06,0,.07.06,0,0h0l0,0,.18-.05.1.32-.08,0h0v.14a.15.15,0,0,1-.06.1l-.06,0,0,0h0l-.09.12,0,0,0,.05h0l.05.1s0,0,0,.09l-.07.07-.05,0-.06,0,.11.25,0,.07.07,0a.39.39,0,0,1,.1-.05l.14-.07h0l.11,0h0a.31.31,0,0,1,.12.05.22.22,0,0,1,.08.14.18.18,0,0,1,0,.12v0a.37.37,0,0,1,0,.09h.22a.19.19,0,0,0,0-.08v0a.53.53,0,0,0-.05-.2.55.55,0,0,0-.14-.22h0a.54.54,0,0,0-.34-.12h0a.14.14,0,0,0,0-.15l0,0,.08-.07v0l.07-.11.23-.08a.13.13,0,0,0,.08-.18l-.24-.75a.18.18,0,0,0-.08-.09h-.11l-.18.07-.14-.09-.08,0h-.33l-.07,0-.23.12h0a1.1,1.1,0,0,0,0-.16.19.19,0,0,1,0-.07.16.16,0,0,0,0-.1l-.12-.44h-.21v0l.1.34v.05l0,0h0l0,0a1.66,1.66,0,0,0-.33.16,1.84,1.84,0,0,0-.66.72l-.35-.17.18-.06,0,0h0l-1-.65v-.41h-.15v.4l-.32.16-.08,0h0l-.07,0h0l0,0,0,0h0l0-.06,0-.06.24-.5h-.14l-.22.44h0l0,.06,0,.06h0l0,.07,0-.09h0v-.17h0l-.05-.33,0,0h-.33l.15.05,0,.26h0v.08l0,.09h0l0,.15-.26-.27h0l-.16-.15h0l-.15-.15h0l0-.05h-.2l.18.16h0l.56.53-.6-.09-.22-.57,0-.05Zm-4.14,0a.27.27,0,0,0-.09.21v0a.51.51,0,0,0,0,.13l0,.07.13-.09.07.14a1.27,1.27,0,0,1,.08.23V11a.31.31,0,0,1,0,.09h0a.44.44,0,0,1-.09.18l0,0,0,0a4.7,4.7,0,0,1,.35.43l.16.24,0,.13,0,.31v.06q-.42-.09-.84-.15h0a.07.07,0,0,0-.05-.09,11.75,11.75,0,0,1-1.42-.46l-.79-.34h-.07l-.42.25-.43-.25h-.07c-.3.14-.48.21-.8.34a11.61,11.61,0,0,1-1.41.46.07.07,0,0,0-.05.09h0a17.59,17.59,0,0,0-2.82.69h1a17.22,17.22,0,0,1,9.23,0h1c-.48-.16-1-.3-1.46-.42v-.28l-.14-.22c-.06-.16-.09-.26-.16-.41l-.2-.38.13-.13a.35.35,0,0,0,.07-.15.46.46,0,0,0,.08-.21l0,0a.5.5,0,0,1,.09.3v.06l0,0,.21.19.24.18.17.14,0,0,.21-.09.61.13a1.37,1.37,0,0,0,.44.46h0a2.15,2.15,0,0,1,.9.74h.16l0-.06a2.32,2.32,0,0,0-.95-.8,1.11,1.11,0,0,1-.54-.89.92.92,0,0,1,.09-.38,2.39,2.39,0,0,1,.49-.53h0l.19-.19h-.41l0,.17a1.89,1.89,0,0,0-.42.49.8.8,0,0,0-.07.2l-.13.15,0,0a.53.53,0,0,1-.26.18h-.05l-.12,0h0l-.31-.25s0-.08.05-.11a.81.81,0,0,0,0-.2,1.64,1.64,0,0,0,0-.2.36.36,0,0,0,0-.11v0l0,0h0a.36.36,0,0,0,.09-.05,1.5,1.5,0,0,0,.24-.2h-.21l-.11.08-.15.1-.05,0v0a.11.11,0,0,0,.06.07h0l0,0h0s0,.08,0,.12v.15a.35.35,0,0,1,0,.15.71.71,0,0,0,0,.16l0,0,.39.33h0a.83.83,0,0,0,.21,0h.08a.62.62,0,0,0,.24-.13v.09h0l.05.13-.38-.08h0l-.17.06-.14-.11h0l-.24-.18-.18-.16a.62.62,0,0,0-.11-.37.58.58,0,0,0-.16-.19l-.12-.08v.14a.94.94,0,0,1-.13.43,1.08,1.08,0,0,1-.16.16l0,0,0,.05c.09.16.14.24.22.41s.1.25.16.41h0l.13.19v.08l-.25-.06,0-.26h0l0-.17h0l-.17-.26h0a4.39,4.39,0,0,0-.33-.4.54.54,0,0,0,.08-.19.49.49,0,0,0,0-.12v-.09h0a1.31,1.31,0,0,0-.09-.26,1.63,1.63,0,0,0-.11-.23l0-.08-.12.08a.12.12,0,0,1,.11-.11l0,0v0a.06.06,0,0,1,0,0Zm-1.87,0c-.07.09-.14.18-.24.29h0a3.09,3.09,0,0,1-.4.41l0,.05,0,.05a3.35,3.35,0,0,0,.44.29,2.37,2.37,0,0,0,.53.26,3.19,3.19,0,0,0,1.26.23l.06,0v-.07a1.24,1.24,0,0,1-.08-.46v-.06a3.42,3.42,0,0,1,.11-.54s0-.07,0-.07l-.36-.12H193l0,0a.37.37,0,0,1-.13.2.32.32,0,0,1-.23.08.32.32,0,0,1-.2-.06.27.27,0,0,1-.1-.22l0-.27h-.26l.11,0,0,.22v0a.46.46,0,0,0,.45.43.55.55,0,0,0,.32-.12.46.46,0,0,0,.16-.21l.22.07a1.83,1.83,0,0,0-.1.48v.08a1.44,1.44,0,0,0,.05.41,2.82,2.82,0,0,1-1.11-.21,3,3,0,0,1-.51-.25,2.48,2.48,0,0,1-.36-.23,2.83,2.83,0,0,0,.34-.35,3.45,3.45,0,0,0,.31-.38Zm-1.76,0a3,3,0,0,0,.68.61h.08a2.94,2.94,0,0,0,.61-.61h-.18a2.6,2.6,0,0,1-.48.46,3.18,3.18,0,0,1-.52-.46Zm-1,0h0l.05.27a.28.28,0,0,1-.11.22.27.27,0,0,1-.19.06.37.37,0,0,1-.24-.08.35.35,0,0,1-.12-.2l0,0h0l-.36.12s0,0,0,.07a3.49,3.49,0,0,1,.1.54v.06a1.47,1.47,0,0,1-.07.46v.07l.07,0a3.1,3.1,0,0,0,1.25-.23,2.24,2.24,0,0,0,.54-.26,3.35,3.35,0,0,0,.44-.29l0-.05,0-.05a3.09,3.09,0,0,1-.4-.41,1.9,1.9,0,0,1-.24-.28h-.18a3.45,3.45,0,0,0,.31.38c.13.15.22.23.34.35a1.93,1.93,0,0,1-.35.23,3,3,0,0,1-.51.25,2.87,2.87,0,0,1-1.12.21,1.45,1.45,0,0,0,.06-.41V11.1a1.78,1.78,0,0,0-.09-.48l.23-.07a.41.41,0,0,0,.14.21.58.58,0,0,0,.33.12.44.44,0,0,0,.29-.11h0a.41.41,0,0,0,.15-.32v0l0-.22.11,0Zm-9.59,0a.65.65,0,0,0,0,.2.6.6,0,0,0,.08.28,2.11,2.11,0,0,1,.16.23l-2.62.14a.18.18,0,0,0-.1,0,.2.2,0,0,0,0,.11l.08,1.58a.15.15,0,0,0,.15.13h.28a.88.88,0,0,1-.05.15h.22s0-.1,0-.15h0a.59.59,0,0,1,.05-.13,0,0,0,0,0,0,0l-.13-.06.13.06a0,0,0,0,1,0,0,.59.59,0,0,0-.05.13h0a.83.83,0,0,1,0,.15h.08a1.57,1.57,0,0,1,.09-.23.14.14,0,0,0,0-.07h.31l0-.36.66,0v.35l.58,0v-.07c0-.33,0-.55,0-.65l1.25-.06.06.07h0l.27.36-.59.64a1.65,1.65,0,0,0-.85-.27,1,1,0,0,0-.63.2.81.81,0,0,0-.16.16h.19l0,0a.93.93,0,0,1,.55-.18,1.45,1.45,0,0,1,.73.22h.23l.57-.61c.15.19.3.36.42.52h0l-.08.09h.35l-.07-.07h0l.22-.17a3.12,3.12,0,0,1,.49-.34l.24-.14.05,0,0-.06v-.07a.38.38,0,0,1,.22-.34.32.32,0,0,1,.14,0,.35.35,0,0,1,.29.15l0,0,0,0,.29-.09a5.7,5.7,0,0,1,.55-.16h0l.25,0h0v0l0,.24a6.88,6.88,0,0,0-1.44.41,5,5,0,0,0-1.09.71h.22a4.39,4.39,0,0,1,.93-.58,6.2,6.2,0,0,1,.95-.31l.45-.09s0,.05,0,.07h0a1.76,1.76,0,0,1,0,.23v0h-.09a4.61,4.61,0,0,0-1.21.38q-.28.13-.51.27H183a2,2,0,0,1,.29-.14,5.38,5.38,0,0,1,.82-.3l.24-.05.1,0,.15,0,0-.07v-.07a1.61,1.61,0,0,0,0-.25h0s0,0,0-.07h0a3.49,3.49,0,0,0-.06-.37l.93-.05a1.53,1.53,0,0,0,.42.65,1,1,0,0,0,.64.23l.3,0a1,1,0,0,0,.67-.49,1.68,1.68,0,0,0,.2-.84,2.09,2.09,0,0,0,0-.25,2.18,2.18,0,0,0-.21-.7h-.16a2,2,0,0,1,.22.72,1.69,1.69,0,0,1,0,.23,1.51,1.51,0,0,1-.18.77.84.84,0,0,1-.57.42l-.27,0a.8.8,0,0,1-.55-.2,1.47,1.47,0,0,1-.4-.64v-.05h-.06l-1,0h0v0c0-.18-.08-.39-.12-.61l1.13-.06v-.06a1.94,1.94,0,0,1,.15-.56h-.15a1.78,1.78,0,0,0-.13.49l-1,.05-.06-.27-.05-.21h0s0,0,0-.06h-.15l0,.05v0h0l-.23,0c-.1,0-.2,0-.3.06a4.61,4.61,0,0,0-.81.24s0,0,0,0l-.13-.07a.41.41,0,0,0-.19,0,.52.52,0,0,0-.21,0,.5.5,0,0,0-.29.36.37.37,0,0,0,0,.11v0h0a6.34,6.34,0,0,0-.71.47l-.29.24-.15.14a1.13,1.13,0,0,1-.1-.13l-.31-.41.27-.25.18-.15a5.34,5.34,0,0,1,1.05-.73h-.29a6.87,6.87,0,0,0-1,.74l-.17.15-.13.13-.08-.12-.08-.1,0,0c.15-.13.42-.37.62-.52l.34-.24h-.26a.83.83,0,0,1-.18.13c-.21.16-.49.41-.63.54h0l-.25-.34h0a.38.38,0,0,1-.06-.19.42.42,0,0,1,0-.15Z"/><path class="cls-3" d="M195.48,7.36l-.12.11h.23ZM187.82,10s.05,0,.09,0l.37-.16,0-.06a.22.22,0,0,1,.09-.19.34.34,0,0,1,.27-.09.24.24,0,0,1,.16.08.31.31,0,0,1,.1.14l0,0H189l.28-.13a.07.07,0,0,0,0-.09c0-.12-.06-.18-.09-.3a1.41,1.41,0,0,1,0-.28V8.93l0-.06a1,1,0,0,1-.25-.15,1.9,1.9,0,0,1-.25-.24h-.1v.1a1.27,1.27,0,0,0,.27.25h0a1.2,1.2,0,0,0,.24.15h0a1.8,1.8,0,0,0,0,.31c0,.1,0,.17.07.26l-.15.07a.71.71,0,0,0-.1-.14.39.39,0,0,0-.26-.11.55.55,0,0,0-.37.12.41.41,0,0,0-.13.25l-.27.11a1.94,1.94,0,0,0-.2-.3,1.56,1.56,0,0,0-.41-.4l1-1.14V7.93a.86.86,0,0,1-.13-.23.73.73,0,0,1-.09-.26h0V7.38a.51.51,0,0,1,0-.2.46.46,0,0,1,.18-.23.51.51,0,0,1,.34-.11h0a.85.85,0,0,1,.29,0,.25.25,0,0,1,.16.16.35.35,0,0,1,0,.12.32.32,0,0,1-.06.18l-.19.25h0a.43.43,0,0,0-.11.25v0a.42.42,0,0,0,.09.25.45.45,0,0,0,.23.2.56.56,0,0,0,.25.05h0a.51.51,0,0,0,.21,0,.56.56,0,0,0,.25-.18.47.47,0,0,0,.1-.3h1.57a.47.47,0,0,0,.1.3.56.56,0,0,0,.25.18.46.46,0,0,0,.2,0h0a.49.49,0,0,0,.24-.05.47.47,0,0,0,.24-.2.42.42,0,0,0,.09-.25v0a.36.36,0,0,0-.1-.25h0l-.18-.25a.27.27,0,0,1-.07-.18.35.35,0,0,1,0-.12.25.25,0,0,1,.16-.16.82.82,0,0,1,.28,0h0a.51.51,0,0,1,.34.11.44.44,0,0,1,.17.23.39.39,0,0,1,.05.2v.06h0a.73.73,0,0,1-.09.26,1.26,1.26,0,0,1-.13.23V8l1,1.14a1.76,1.76,0,0,0-.42.4c-.07.09-.15.23-.2.3l-.26-.11a.47.47,0,0,0-.13-.25.53.53,0,0,0-.37-.12.39.39,0,0,0-.26.11.45.45,0,0,0-.1.14l-.16-.08a.91.91,0,0,0,.07-.25,1.87,1.87,0,0,0,0-.32h0a1.06,1.06,0,0,0,.23-.16,1.07,1.07,0,0,0,.27-.25v-.1h-.1a1.9,1.9,0,0,1-.25.24,1.28,1.28,0,0,1-.25.15l0,.06V9a1,1,0,0,1,0,.29,1.67,1.67,0,0,1-.08.3s0,.07,0,.09l.27.13h.06l0,0a.31.31,0,0,1,.1-.14.23.23,0,0,1,.16-.08.34.34,0,0,1,.27.09.22.22,0,0,1,.09.19l0,.06.37.16a.08.08,0,0,0,.09,0l.07-.13.15-.21a1.59,1.59,0,0,1,.44-.42l0-.05,0-.06-1-1.15a1.13,1.13,0,0,0,.11-.22.81.81,0,0,0,.1-.3V7.38a.57.57,0,0,0-.06-.25.54.54,0,0,0-.22-.3.64.64,0,0,0-.42-.13h0a.8.8,0,0,0-.34,0,.37.37,0,0,0-.23.24.38.38,0,0,0,0,.17.54.54,0,0,0,.09.27h0l.18.24h0a.27.27,0,0,1,.08.17v0a.29.29,0,0,1-.07.18h0a.34.34,0,0,1-.16.15h0a.41.41,0,0,1-.19,0h0a.39.39,0,0,1-.15,0h0a.38.38,0,0,1-.19-.14h0a.38.38,0,0,1-.08-.24v-.1l0,0h-1.71l-.05,0,0,.06v0a.33.33,0,0,1-.08.24h0a.32.32,0,0,1-.18.14.41.41,0,0,1-.16,0h0a.38.38,0,0,1-.19,0h0a.61.61,0,0,1-.17-.15.37.37,0,0,1-.07-.18v0a.22.22,0,0,1,.07-.17h0l.19-.24h0a.46.46,0,0,0,.09-.27.59.59,0,0,0,0-.17.38.38,0,0,0-.24-.24.76.76,0,0,0-.34,0h0a.66.66,0,0,0-.43.13.65.65,0,0,0-.22.3.76.76,0,0,0-.06.25v.07a.67.67,0,0,0,.1.3.76.76,0,0,0,.11.22l-1,1.15,0,.06,0,.05a1.46,1.46,0,0,1,.44.42h0a1.53,1.53,0,0,1,.14.21,1.08,1.08,0,0,1,.08.13m-3.71-.83,2-2.1L187,8l-.47.5-.21-.2,0,0-.65.69.26.24-.21.22-.47-.44-.06-.05-1,1.05-.15-.65,0-.06a.18.18,0,0,0,.07-.05m5.81-2.07h0l-.07,0Zm-1.24-2.22h0a2.83,2.83,0,0,0,.33.76,1.85,1.85,0,0,0,.19.27h0a1.63,1.63,0,0,1,.27.25,2.63,2.63,0,0,1,.29.39.81.81,0,0,1,.1.18h0l-.1-.17a2.63,2.63,0,0,0-.29-.39,1.63,1.63,0,0,0-.27-.25h0a1.85,1.85,0,0,1-.19-.27,2.83,2.83,0,0,1-.33-.76m-.25-.55H193v.41h-4.6Zm1.12-.75a1.21,1.21,0,0,1,.84-.34h.07v-1h-.6V1.82h.6v-.6H191v.6h.6V2.2H191v1h.07a1.19,1.19,0,0,1,.86.34,1,1,0,0,1,.3.62h-3a1,1,0,0,1,.33-.6m3.38,1.32h0a.65.65,0,0,1,0,.13,3.08,3.08,0,0,1-.3.68h0a3.08,3.08,0,0,0,.3-.68l0-.13h0v0h0v0m-3.69,0h3a1.52,1.52,0,0,1-.35.83,1.28,1.28,0,0,1-2.3,0h0a1.68,1.68,0,0,1-.35-.83M190,6.94h0m2.62-1.23-.21.3h0l-.17.16a1.45,1.45,0,0,0-.26.17,1.43,1.43,0,0,0-.41.6h-1.47a0,0,0,0,0,0,0h0a.05.05,0,0,0,0,0,1.22,1.22,0,0,0-.33-.52,3.25,3.25,0,0,0-.44-.48,1.59,1.59,0,0,1-.18-.27,2.09,2.09,0,0,1-.35-.72h.36a1.9,1.9,0,0,0,.39.92,2.18,2.18,0,0,0,1.24.76h0A2.15,2.15,0,0,0,192,5.79a1.82,1.82,0,0,0,.4-.92h.33a2.09,2.09,0,0,1-.33.73l-.18.26a2.36,2.36,0,0,0-.52.58,1.61,1.61,0,0,0-.26.46s0,0,0,0h.1a1.43,1.43,0,0,1,.41-.6,1.45,1.45,0,0,1,.26-.17l.17-.16h0l.21-.3ZM197.33,9a1.9,1.9,0,0,1-.19.78A.85.85,0,0,1,197,10a.05.05,0,0,0,0,0l-.12-.8,0,0-.1-.09a.23.23,0,0,0-.15-.05h-.18a1.07,1.07,0,0,0,.07-.19h0a.46.46,0,0,0,0-.2V8.62l.14-.09h0a.22.22,0,0,1,.14-.06h0a.17.17,0,0,1,.14,0,.32.32,0,0,1,.06.13v.07h0l-.06.12v0l.25.43ZM190,7.09h0m2,3.08,0,0,.13,0h.26a.08.08,0,0,0,0-.07L192,10l-.08,0-.12.17Zm-1.74,0-.11-.12a1.8,1.8,0,0,1-.39-.66,1.56,1.56,0,0,1-.09-.5.84.84,0,0,0,.38-.15.92.92,0,0,0,.29-.3l.43.08h0l.36-.08a1,1,0,0,0,.29.3.88.88,0,0,0,.39.15,1.89,1.89,0,0,1-.09.5,2.13,2.13,0,0,1-.39.66l-.1.12h.18a.05.05,0,0,0,0,0,2,2,0,0,0,.42-.69,1.59,1.59,0,0,0,.09-.6v0s0-.07-.06-.07a.8.8,0,0,1-.65-.43l-.08,0-.4.09-.45-.09-.08,0a.78.78,0,0,1-.27.3.68.68,0,0,1-.39.13.07.07,0,0,0-.06.07v0a1.61,1.61,0,0,0,.1.6,1.9,1.9,0,0,0,.41.7l0,0Zm-.88,0,.13,0,0,0h.18l-.13-.17-.07,0-.35.13a.08.08,0,0,0-.05.07Zm-3.63,0,.08-.12a.86.86,0,0,1,.57-.43l.18,0a.89.89,0,0,1,.7.4l.12.17h.16l-.16-.26a1.06,1.06,0,0,0-.82-.46l-.21,0a1,1,0,0,0-.66.49.78.78,0,0,0-.11.2Zm-6,0a.76.76,0,0,1,.18-.22h0c.2-.17.48-.41.82-.65a.48.48,0,0,0,.2-.35.29.29,0,0,0,0-.16.58.58,0,0,1,0-.19.43.43,0,0,1,.26-.39.37.37,0,0,1,.18,0,.44.44,0,0,1,.4.27.35.35,0,0,0,.33.21.37.37,0,0,0,.15,0,6.33,6.33,0,0,1,1.08-.19h0l.11,0a.43.43,0,0,1,.24.06.3.3,0,0,1,.12.13.14.14,0,0,1,0,.06h0a.89.89,0,0,1,.05.18c0,.07,0,.14.06.23h0c-.19,0-.55.08-.82.14a6.32,6.32,0,0,0-.81.25.48.48,0,0,0-.36-.16.41.41,0,0,0-.21.05.51.51,0,0,0-.3.46v.05l-.53.33h.26l.14-.08.25-.15,0,0V9.79a.38.38,0,0,1,.2-.34l.16,0a.4.4,0,0,1,.29.15l0,0,0,0,.27-.1c.16-.05.37-.12.56-.16a7.2,7.2,0,0,1,.72-.12l.11,0,0,.08,0,.1v.08l-.23,0-.23,0a5.65,5.65,0,0,0-1.56.44l-.39.21h.29l.16-.08a5.11,5.11,0,0,1,1.34-.4l.24,0L184,9.6c0,.15.07.3.11.45a.5.5,0,0,0,0,.12h.15a.31.31,0,0,0,0-.08l.95-1,.47.44.06.05.4-.43-.26-.24.45-.48.21.19.05.05.58-.62a.18.18,0,0,0,.1,0,.17.17,0,0,0,.07-.15,2.51,2.51,0,0,1,0-.37,1.27,1.27,0,0,1,.38-1,1.24,1.24,0,0,1,.83-.29,1.54,1.54,0,0,1,.83.2l.14.11c0,.05.07.09.11.16a.66.66,0,0,1,.11.16.42.42,0,0,1,.08.15h0a.14.14,0,0,0,.08.09h1.73v0h-.08a.17.17,0,0,0,.19-.08,2.15,2.15,0,0,1,.17-.34l0-.06a1.1,1.1,0,0,1,.23-.2,1.53,1.53,0,0,1,.82-.2,1.27,1.27,0,0,1,.84.3,1.25,1.25,0,0,1,.37,1c0,.09,0,.19,0,.3a.12.12,0,0,0,.08.14.12.12,0,0,0,.16,0l.41-.37,0,0-.07.08,0,.09.24.06h0a1.48,1.48,0,0,0,.12.29h0a1.2,1.2,0,0,0,.16.27l0,.08a1.39,1.39,0,0,1-.06.13l-.07.15-.42.34c-.14.12-.22.19-.35.32a.93.93,0,0,0-.41.3,1.1,1.1,0,0,0-.26.44l-.07,0h.21a.86.86,0,0,1,.22-.38,1,1,0,0,1,.38-.28h0l.35-.32c.16-.14.26-.21.43-.34l0,0h0a1.3,1.3,0,0,0,.08-.17,1.11,1.11,0,0,0,.07-.16l0,0-.06-.13h0a1.48,1.48,0,0,1-.16-.27,1.12,1.12,0,0,1-.12-.32l0,0H195l0,0,0,0-.09-.13.29-.25,0,0,.12.11,0,0h.09l.11,0,0,.09,0,0,.34.13v.12h-.09l-.19,0-.1,0,0,.09.09.13a1.62,1.62,0,0,0,.2.18,1.83,1.83,0,0,0,.3.18l0,0,.14-.1.15,0h.22l.25.1a1,1,0,0,1,.16.3.77.77,0,0,1,0,.25v.05l-.07.12-.08-.14,0-.1v0a.48.48,0,0,0,0-.12.36.36,0,0,0-.09-.2.33.33,0,0,0-.23-.1h0a.28.28,0,0,0-.16.06l-.08,0h0l-.17.11,0,0V8.7a.56.56,0,0,1,0,.17.62.62,0,0,1-.12.29l-.08.12.15,0c.17,0,.16,0,.3,0l.07,0s0,0,.06.06l.11.75-.05.06,0-.25h0V9.64a.3.3,0,0,0-.1-.26.16.16,0,0,0-.09,0l-.2.05a4.15,4.15,0,0,0-.39.15h0v0a2.93,2.93,0,0,1-.36.43,2.32,2.32,0,0,1-.18.16h.21l.07-.06a2.11,2.11,0,0,0,.36-.43c.13,0,.23-.12.36-.15l.17,0s0,.06.05.14,0,.07,0,.11,0,.09,0,.15h0l.06.27H197l.06-.06a1.35,1.35,0,0,0,.18-.25l.53.26,0,.05H198l0-.05h0l0-.09.16.14h.2l-.2-.2.57.2H199l.61-.49-.25.49h.14l.2-.38v.38h.15V9.38l0,0h0l-.91.74-1.15-.4-.05.05h0l.06.17-.39-.19a2,2,0,0,0,.17-.78,1.57,1.57,0,0,0-.1-.58l0-.07.38-.16.07,0,.06.06a1.25,1.25,0,0,0,.39.26,1.52,1.52,0,0,0,.63.09,1.93,1.93,0,0,1,.52.15h0a.18.18,0,0,0,.1,0,.15.15,0,0,0,.15-.11h0a.54.54,0,0,0,0-.11h0a.45.45,0,0,1,.45-.33.44.44,0,0,1,.22,0,.5.5,0,0,1,.27.43.35.35,0,0,1-.1.26h0a.28.28,0,0,0-.08.08.12.12,0,0,0,0,.09.17.17,0,0,0,.11.16h0a1.5,1.5,0,0,1,.44.32c.14.13.2.3.45.44a1.68,1.68,0,0,0,.46.14h.07l0,.05h.21l0-.15a.14.14,0,0,0-.12-.11h0a1.22,1.22,0,0,1-.48-.13.67.67,0,0,1-.22-.17,1.62,1.62,0,0,0-.18-.23,1.89,1.89,0,0,0-.46-.34h0a.63.63,0,0,0,.17-.42.69.69,0,0,0-.4-.62.71.71,0,0,0-.31-.08.79.79,0,0,0-.43.14.58.58,0,0,0-.23.4h0a1.88,1.88,0,0,0-.55-.15h-.3a.83.83,0,0,1-.27-.07.75.75,0,0,1-.28-.18L198,8l0,0h0a.14.14,0,0,0-.16,0l-.46.19-.41-.27-.07,0h-.26l-.19.06-.05,0-.08.06h0l.06-.06a.21.21,0,0,0,0-.1V7.58l-.05-.17s0-.08-.08-.09l-.34-.13,0-.07a.13.13,0,0,0-.1-.07l-.14,0h-.05l-.16-.15a.14.14,0,0,0-.2,0l-.67.61A1.6,1.6,0,0,0,194,6.3a1.5,1.5,0,0,0-1-.37,1.94,1.94,0,0,0-.49.05,2.5,2.5,0,0,0,.16-.24A2.76,2.76,0,0,0,193,5h.18a.18.18,0,0,0,.1,0,.13.13,0,0,0,0-.1V4.16a.14.14,0,0,0-.14-.14h-.63a1.22,1.22,0,0,0-.3-.63,1.31,1.31,0,0,0-.9-.46V2.54h.46a.14.14,0,0,0,.1,0,.15.15,0,0,0,0-.1V1.65a.15.15,0,0,0,0-.1.14.14,0,0,0-.1-.05h-.46V1a.14.14,0,0,0,0-.11.13.13,0,0,0-.1,0h-.91a.12.12,0,0,0-.1,0,.12.12,0,0,0-.05.11V1.5h-.46a.14.14,0,0,0-.1.05.12.12,0,0,0,0,.1v.74a.12.12,0,0,0,0,.1.14.14,0,0,0,.1,0h.46V3a1.43,1.43,0,0,0-.86.44,1.46,1.46,0,0,0-.34.63h-.66a.14.14,0,0,0-.14.14v.73a.18.18,0,0,0,0,.1.21.21,0,0,0,.1,0h.2a2.76,2.76,0,0,0,.35.71h0A2.5,2.5,0,0,0,189,6a1.86,1.86,0,0,0-.48-.05,1.57,1.57,0,0,0-1,.36A1.49,1.49,0,0,0,187,7.5v0l-.86-.78a.14.14,0,0,0-.2,0l-1.88,2a1.46,1.46,0,0,1,0-.2h0a.47.47,0,0,0-.27-.31,1,1,0,0,0-.37-.07h-.16a7.8,7.8,0,0,0-1.11.2h0a.18.18,0,0,1-.1,0,.12.12,0,0,1-.14-.09.67.67,0,0,0-.6-.38A.58.58,0,0,0,181,8a.65.65,0,0,0-.38.59.57.57,0,0,0,.06.28v.06a.23.23,0,0,1-.11.18h0a7.89,7.89,0,0,0-.83.67,1.07,1.07,0,0,0-.22.25.61.61,0,0,0-.07.14Z"/></svg>